<?xml version="1.0" encoding="utf-8"?>
<!-- Generator: Adobe Illustrator 16.0.0, SVG Export Plug-In . SVG Version: 6.00 Build 0)  -->
<!DOCTYPE svg PUBLIC "-//W3C//DTD SVG 1.1//EN" "http://www.w3.org/Graphics/SVG/1.1/DTD/svg11.dtd">
<svg version="1.1" id="Layer_1" xmlns="http://www.w3.org/2000/svg" xmlns:xlink="http://www.w3.org/1999/xlink" x="0px" y="0px"
	 width="250px" height="250px" viewBox="0 0 250 250" enable-background="new 0 0 250 250" xml:space="preserve">
<path fill="#DD0031" d="M59.6,42h124.8c9.713,0,17.6,7.886,17.6,17.6v124.8c0,9.713-7.887,17.6-17.6,17.6H59.6
	c-9.714,0-17.6-7.887-17.6-17.6V59.6C42,49.886,49.886,42,59.6,42z"/>
<g>
	<polygon fill="#DD0031" points="29.481,99.173 22.707,40.448 67.323,24.538 111.938,40.448 105.164,99.173 67.323,120.132 	"/>
	<path fill="#FFFFFF" d="M67.323,26.661l42.446,15.137l-6.474,56.124l-35.972,19.924L31.35,97.922l-6.474-56.124L67.323,26.661
		 M67.323,22.415l-1.344,0.479L23.532,38.03l-2.994,1.068l0.364,3.158l6.474,56.124l0.236,2.044l1.8,0.997l35.973,19.924
		l1.938,1.074l1.938-1.074l35.972-19.924l1.8-0.997l0.236-2.044l6.474-56.124l0.364-3.158l-2.994-1.068L68.667,22.894L67.323,22.415
		L67.323,22.415z"/>
</g>
<path fill="#C3002F" d="M67.323,26.661v10.122v-0.046v46.185l0,0v34.924l0,0l35.972-19.924l6.474-56.124L67.323,26.661
	L67.323,26.661z"/>
<path fill="#FFFFFF" d="M67.323,36.737L40.788,96.235l0,0h9.894l0,0l5.334-13.313h22.522l5.335,13.313l0,0h9.893l0,0L67.323,36.737
	L67.323,36.737L67.323,36.737L67.323,36.737L67.323,36.737z M75.073,74.716H59.572l7.751-18.648L75.073,74.716z"/>
<path fill-opacity="0.3" d="M83.453,153.453l17.262,17.263H83.453V153.453z M158.545,78.456l-69.914,69.817l17.263,17.264
	l69.915-69.818L158.545,78.456z"/>
<path fill="#FFFFFF" d="M80,150l17.263,17.264H80V150z M154.805,74.716l-69.625,70.106l17.263,17.262l69.626-70.106L154.805,74.716z
	"/>
</svg>
