<?xml version="1.0" encoding="UTF-8" standalone="no"?>
<!DOCTYPE svg PUBLIC "-//W3C//DTD SVG 1.1//EN"
 "http://www.w3.org/Graphics/SVG/1.1/DTD/svg11.dtd">
<!-- Generated by graphviz version 2.40.1 (20161225.0304)
 -->
<!-- Title: dependencies Pages: 1 -->
<svg width="1506pt" height="472pt"
 viewBox="0.00 0.00 1506.00 471.59" xmlns="http://www.w3.org/2000/svg" xmlns:xlink="http://www.w3.org/1999/xlink">
<g id="graph0" class="graph" transform="scale(1 1) rotate(0) translate(4 467.5901)">
<title>dependencies</title>
<polygon fill="#ffffff" stroke="transparent" points="-4,4 -4,-467.5901 1502,-467.5901 1502,4 -4,4"/>
<text text-anchor="start" x="728.0091" y="-42.4" font-family="sans-serif" font-weight="bold" font-size="14.00" fill="#000000">Legend</text>
<polygon fill="#ffffb3" stroke="transparent" points="515,-10 515,-30 535,-30 535,-10 515,-10"/>
<text text-anchor="start" x="538.629" y="-15.4" font-family="sans-serif" font-size="14.00" fill="#000000"> &#160;Declarations</text>
<polygon fill="#8dd3c7" stroke="transparent" points="628,-10 628,-30 648,-30 648,-10 628,-10"/>
<text text-anchor="start" x="651.7251" y="-15.4" font-family="sans-serif" font-size="14.00" fill="#000000"> &#160;Module</text>
<polygon fill="#80b1d3" stroke="transparent" points="714,-10 714,-30 734,-30 734,-10 714,-10"/>
<text text-anchor="start" x="737.7812" y="-15.4" font-family="sans-serif" font-size="14.00" fill="#000000"> &#160;Bootstrap</text>
<polygon fill="#fdb462" stroke="transparent" points="811,-10 811,-30 831,-30 831,-10 811,-10"/>
<text text-anchor="start" x="834.6732" y="-15.4" font-family="sans-serif" font-size="14.00" fill="#000000"> &#160;Providers</text>
<polygon fill="#fb8072" stroke="transparent" points="907,-10 907,-30 927,-30 927,-10 907,-10"/>
<text text-anchor="start" x="930.7258" y="-15.4" font-family="sans-serif" font-size="14.00" fill="#000000"> &#160;Exports</text>
<g id="clust1" class="cluster">
<title>cluster_AppModule</title>
<polygon fill="none" stroke="#000000" stroke-dasharray="1,5" points="852,-257.5901 852,-455.5901 1132,-455.5901 1132,-257.5901 852,-257.5901"/>
</g>
<g id="clust2" class="cluster">
<title>cluster_AppModule_declarations</title>
<polygon fill="none" stroke="#000000" points="1002,-265.5901 1002,-317.5901 1124,-317.5901 1124,-265.5901 1002,-265.5901"/>
</g>
<g id="clust4" class="cluster">
<title>cluster_AppModule_imports</title>
<polygon fill="none" stroke="#000000" points="860,-265.5901 860,-317.5901 994,-317.5901 994,-265.5901 860,-265.5901"/>
</g>
<g id="clust6" class="cluster">
<title>cluster_AppModule_bootstrap</title>
<polygon fill="none" stroke="#000000" points="932,-395.5901 932,-447.5901 1056,-447.5901 1056,-395.5901 932,-395.5901"/>
</g>
<g id="clust8" class="cluster">
<title>cluster_NgxEditorModule</title>
<polygon fill="none" stroke="#000000" stroke-dasharray="1,5" points="8,-70 8,-249.5901 1490,-249.5901 1490,-70 8,-70"/>
</g>
<g id="clust9" class="cluster">
<title>cluster_NgxEditorModule_declarations</title>
<polygon fill="none" stroke="#000000" points="273,-189.5901 273,-241.5901 1005,-241.5901 1005,-189.5901 273,-189.5901"/>
</g>
<g id="clust10" class="cluster">
<title>cluster_NgxEditorModule_NgxEditorComponent_providers</title>
<polygon fill="none" stroke="#000000" points="16,-78 16,-176.5901 894,-176.5901 894,-78 16,-78"/>
</g>
<g id="clust15" class="cluster">
<title>cluster_NgxEditorModule_exports</title>
<polygon fill="none" stroke="#000000" points="902,-101.295 902,-153.295 1062,-153.295 1062,-101.295 902,-101.295"/>
</g>
<g id="clust17" class="cluster">
<title>cluster_NgxEditorModule_providers</title>
<polygon fill="none" stroke="#000000" points="1070,-101.295 1070,-153.295 1482,-153.295 1482,-101.295 1070,-101.295"/>
</g>
<!-- AppComponent -->
<g id="node1" class="node">
<title>AppComponent</title>
<polygon fill="#ffffb3" stroke="#000000" points="1115.9399,-309.5901 1010.0601,-309.5901 1010.0601,-273.5901 1115.9399,-273.5901 1115.9399,-309.5901"/>
<text text-anchor="middle" x="1063" y="-287.3901" font-family="Times,serif" font-size="14.00" fill="#000000">AppComponent</text>
</g>
<!-- AppModule -->
<g id="node2" class="node">
<title>AppModule</title>
<polygon fill="#8dd3c7" stroke="#000000" points="1035.6571,-374.5901 1032.6571,-378.5901 1011.6571,-378.5901 1008.6571,-374.5901 952.3429,-374.5901 952.3429,-338.5901 1035.6571,-338.5901 1035.6571,-374.5901"/>
<text text-anchor="middle" x="994" y="-352.3901" font-family="Times,serif" font-size="14.00" fill="#000000">AppModule</text>
</g>
<!-- AppComponent&#45;&gt;AppModule -->
<g id="edge1" class="edge">
<title>AppComponent&#45;&gt;AppModule</title>
<path fill="none" stroke="#000000" d="M1023.0544,-309.6962C1023.0544,-309.6962 1023.0544,-328.581 1023.0544,-328.581"/>
<polygon fill="#000000" stroke="#000000" points="1019.5544,-328.581 1023.0544,-338.581 1026.5544,-328.5811 1019.5544,-328.581"/>
</g>
<!-- AppComponent  -->
<g id="node4" class="node">
<title>AppComponent </title>
<polygon fill="#80b1d3" stroke="#000000" points="1048.439,-439.5901 939.561,-439.5901 939.561,-403.5901 1048.439,-403.5901 1048.439,-439.5901"/>
<text text-anchor="middle" x="994" y="-417.3901" font-family="Times,serif" font-size="14.00" fill="#000000">AppComponent </text>
</g>
<!-- AppModule&#45;&gt;AppComponent  -->
<g id="edge3" class="edge">
<title>AppModule&#45;&gt;AppComponent </title>
<path fill="none" stroke="#000000" stroke-dasharray="1,5" d="M994,-374.6962C994,-374.6962 994,-393.581 994,-393.581"/>
<polygon fill="#000000" stroke="#000000" points="990.5001,-393.581 994,-403.581 997.5001,-393.5811 990.5001,-393.581"/>
</g>
<!-- NgxEditorModule -->
<g id="node3" class="node">
<title>NgxEditorModule</title>
<polygon fill="#8dd3c7" stroke="#000000" points="986.1513,-309.5901 983.1513,-313.5901 962.1513,-313.5901 959.1513,-309.5901 867.8487,-309.5901 867.8487,-273.5901 986.1513,-273.5901 986.1513,-309.5901"/>
<text text-anchor="middle" x="927" y="-287.3901" font-family="Times,serif" font-size="14.00" fill="#000000">NgxEditorModule</text>
</g>
<!-- NgxEditorModule&#45;&gt;AppModule -->
<g id="edge2" class="edge">
<title>NgxEditorModule&#45;&gt;AppModule</title>
<path fill="none" stroke="#000000" d="M969.2486,-309.6962C969.2486,-309.6962 969.2486,-328.581 969.2486,-328.581"/>
<polygon fill="#000000" stroke="#000000" points="965.7487,-328.581 969.2486,-338.581 972.7487,-328.5811 965.7487,-328.581"/>
</g>
<!-- NgxEditorComponent  -->
<g id="node10" class="node">
<title>NgxEditorComponent </title>
<polygon fill="#fb8072" stroke="#000000" points="1053.9334,-145.295 910.0666,-145.295 910.0666,-109.295 1053.9334,-109.295 1053.9334,-145.295"/>
<text text-anchor="middle" x="982" y="-123.095" font-family="Times,serif" font-size="14.00" fill="#000000">NgxEditorComponent </text>
</g>
<!-- NgxEditorModule&#45;&gt;NgxEditorComponent  -->
<g id="edge9" class="edge">
<title>NgxEditorModule&#45;&gt;NgxEditorComponent </title>
<path fill="none" stroke="#000000" stroke-dasharray="5,2" d="M986.3332,-291.5901C996.4398,-291.5901 1003.7486,-291.5901 1003.7486,-291.5901 1003.7486,-291.5901 1003.7486,-155.5052 1003.7486,-155.5052"/>
<polygon fill="#000000" stroke="#000000" points="1007.2487,-155.5052 1003.7486,-145.5052 1000.2487,-155.5053 1007.2487,-155.5052"/>
</g>
<!-- NgxEditorComponent -->
<g id="node5" class="node">
<title>NgxEditorComponent</title>
<polygon fill="#ffffb3" stroke="#000000" points="997.4341,-233.5901 856.5659,-233.5901 856.5659,-197.5901 997.4341,-197.5901 997.4341,-233.5901"/>
<text text-anchor="middle" x="927" y="-211.3901" font-family="Times,serif" font-size="14.00" fill="#000000">NgxEditorComponent</text>
</g>
<!-- NgxEditorComponent&#45;&gt;NgxEditorModule -->
<g id="edge4" class="edge">
<title>NgxEditorComponent&#45;&gt;NgxEditorModule</title>
<path fill="none" stroke="#000000" d="M897.3373,-233.601C897.3373,-233.601 897.3373,-263.445 897.3373,-263.445"/>
<polygon fill="#000000" stroke="#000000" points="893.8374,-263.445 897.3373,-273.445 900.8374,-263.4451 893.8374,-263.445"/>
</g>
<!-- NgxEditorMessageComponent -->
<g id="node6" class="node">
<title>NgxEditorMessageComponent</title>
<polygon fill="#ffffb3" stroke="#000000" points="838.9114,-233.5901 649.0886,-233.5901 649.0886,-197.5901 838.9114,-197.5901 838.9114,-233.5901"/>
<text text-anchor="middle" x="744" y="-211.3901" font-family="Times,serif" font-size="14.00" fill="#000000">NgxEditorMessageComponent</text>
</g>
<!-- NgxEditorMessageComponent&#45;&gt;NgxEditorModule -->
<g id="edge6" class="edge">
<title>NgxEditorMessageComponent&#45;&gt;NgxEditorModule</title>
<path fill="none" stroke="#000000" d="M744,-233.8981C744,-253.7356 744,-282.5901 744,-282.5901 744,-282.5901 857.8379,-282.5901 857.8379,-282.5901"/>
<polygon fill="#000000" stroke="#000000" points="857.8379,-286.0902 867.8379,-282.5901 857.8378,-279.0902 857.8379,-286.0902"/>
</g>
<!-- NgxEditorToolbarComponent -->
<g id="node7" class="node">
<title>NgxEditorToolbarComponent</title>
<polygon fill="#ffffb3" stroke="#000000" points="631.252,-233.5901 446.748,-233.5901 446.748,-197.5901 631.252,-197.5901 631.252,-233.5901"/>
<text text-anchor="middle" x="539" y="-211.3901" font-family="Times,serif" font-size="14.00" fill="#000000">NgxEditorToolbarComponent</text>
</g>
<!-- NgxEditorToolbarComponent&#45;&gt;NgxEditorModule -->
<g id="edge7" class="edge">
<title>NgxEditorToolbarComponent&#45;&gt;NgxEditorModule</title>
<path fill="none" stroke="#000000" d="M539,-233.601C539,-256.0752 539,-291.5901 539,-291.5901 539,-291.5901 857.6488,-291.5901 857.6488,-291.5901"/>
<polygon fill="#000000" stroke="#000000" points="857.6488,-295.0902 867.6488,-291.5901 857.6488,-288.0902 857.6488,-295.0902"/>
</g>
<!-- NgxGrippieComponent -->
<g id="node8" class="node">
<title>NgxGrippieComponent</title>
<polygon fill="#ffffb3" stroke="#000000" points="429.2021,-233.5901 280.7979,-233.5901 280.7979,-197.5901 429.2021,-197.5901 429.2021,-233.5901"/>
<text text-anchor="middle" x="355" y="-211.3901" font-family="Times,serif" font-size="14.00" fill="#000000">NgxGrippieComponent</text>
</g>
<!-- NgxGrippieComponent&#45;&gt;NgxEditorModule -->
<g id="edge8" class="edge">
<title>NgxGrippieComponent&#45;&gt;NgxEditorModule</title>
<path fill="none" stroke="#000000" d="M355,-233.6164C355,-258.5674 355,-300.5901 355,-300.5901 355,-300.5901 857.6728,-300.5901 857.6728,-300.5901"/>
<polygon fill="#000000" stroke="#000000" points="857.6728,-304.0902 867.6728,-300.5901 857.6728,-297.0902 857.6728,-304.0902"/>
</g>
<!-- {
 &#160;&#160;&#160;provide: NG_VALUE_ACCESSOR, useExisting: forwardRef(() =&gt; NgxEditorComponent), multi: true
} -->
<g id="node9" class="node">
<title>{
 &#160;&#160;&#160;provide: NG_VALUE_ACCESSOR, useExisting: forwardRef(() =&gt; NgxEditorComponent), multi: true
}</title>
<ellipse fill="#fdb462" stroke="#000000" cx="455" cy="-127.295" rx="431.1036" ry="41.0911"/>
<text text-anchor="middle" x="455" y="-139.895" font-family="Times,serif" font-size="14.00" fill="#000000">{</text>
<text text-anchor="middle" x="455" y="-123.095" font-family="Times,serif" font-size="14.00" fill="#000000"> &#160;&#160;&#160;provide: NG_VALUE_ACCESSOR, useExisting: forwardRef(() =&gt; NgxEditorComponent), multi: true</text>
<text text-anchor="middle" x="455" y="-106.295" font-family="Times,serif" font-size="14.00" fill="#000000">}</text>
</g>
<!-- {
 &#160;&#160;&#160;provide: NG_VALUE_ACCESSOR, useExisting: forwardRef(() =&gt; NgxEditorComponent), multi: true
}&#45;&gt;NgxEditorComponent -->
<g id="edge5" class="edge">
<title>{
 &#160;&#160;&#160;provide: NG_VALUE_ACCESSOR, useExisting: forwardRef(() =&gt; NgxEditorComponent), multi: true
}&#45;&gt;NgxEditorComponent</title>
<path fill="none" stroke="#000000" d="M871.5425,-138.1217C871.5425,-138.1217 871.5425,-187.2953 871.5425,-187.2953"/>
<polygon fill="#000000" stroke="#000000" points="868.0426,-187.2952 871.5425,-197.2953 875.0426,-187.2953 868.0426,-187.2952"/>
</g>
<!-- CommandExecutorService -->
<g id="node11" class="node">
<title>CommandExecutorService</title>
<ellipse fill="#fdb462" stroke="#000000" cx="1193" cy="-127.295" rx="115.1706" ry="18"/>
<text text-anchor="middle" x="1193" y="-123.095" font-family="Times,serif" font-size="14.00" fill="#000000">CommandExecutorService</text>
</g>
<!-- CommandExecutorService&#45;&gt;NgxEditorModule -->
<g id="edge10" class="edge">
<title>CommandExecutorService&#45;&gt;NgxEditorModule</title>
<path fill="none" stroke="#000000" d="M1096.8171,-137.5513C1096.8171,-166.642 1096.8171,-247.5901 1096.8171,-247.5901 1096.8171,-247.5901 927,-247.5901 927,-247.5901 927,-247.5901 927,-263.4396 927,-263.4396"/>
<polygon fill="#000000" stroke="#000000" points="923.5001,-263.4395 927,-273.4396 930.5001,-263.4396 923.5001,-263.4395"/>
</g>
<!-- MessageService -->
<g id="node12" class="node">
<title>MessageService</title>
<ellipse fill="#fdb462" stroke="#000000" cx="1400" cy="-127.295" rx="73.5522" ry="18"/>
<text text-anchor="middle" x="1400" y="-123.095" font-family="Times,serif" font-size="14.00" fill="#000000">MessageService</text>
</g>
<!-- MessageService&#45;&gt;NgxEditorModule -->
<g id="edge11" class="edge">
<title>MessageService&#45;&gt;NgxEditorModule</title>
<path fill="none" stroke="#000000" d="M1400,-145.5497C1400,-182.0558 1400,-260.5901 1400,-260.5901 1400,-260.5901 956.6627,-260.5901 956.6627,-260.5901 956.6627,-260.5901 956.6627,-263.5572 956.6627,-263.5572"/>
<polygon fill="#000000" stroke="#000000" points="953.1628,-263.5572 956.6627,-273.5572 960.1628,-263.5573 953.1628,-263.5572"/>
</g>
</g>
</svg>
