<?xml version="1.0" encoding="UTF-8" standalone="no"?>
<!DOCTYPE svg PUBLIC "-//W3C//DTD SVG 1.1//EN"
 "http://www.w3.org/Graphics/SVG/1.1/DTD/svg11.dtd">
<!-- Generated by graphviz version 2.40.1 (20161225.0304)
 -->
<!-- Title: dependencies Pages: 1 -->
<svg width="1114pt" height="467pt"
 viewBox="0.00 0.00 1114.00 466.59" xmlns="http://www.w3.org/2000/svg" xmlns:xlink="http://www.w3.org/1999/xlink">
<g id="graph0" class="graph" transform="scale(1 1) rotate(0) translate(4 462.5901)">
<title>dependencies</title>
<polygon fill="#ffffff" stroke="transparent" points="-4,4 -4,-462.5901 1110,-462.5901 1110,4 -4,4"/>
<text text-anchor="start" x="532.0091" y="-42.4" font-family="sans-serif" font-weight="bold" font-size="14.00" fill="#000000">Legend</text>
<polygon fill="#ffffb3" stroke="transparent" points="319,-10 319,-30 339,-30 339,-10 319,-10"/>
<text text-anchor="start" x="342.629" y="-15.4" font-family="sans-serif" font-size="14.00" fill="#000000"> &#160;Declarations</text>
<polygon fill="#8dd3c7" stroke="transparent" points="432,-10 432,-30 452,-30 452,-10 432,-10"/>
<text text-anchor="start" x="455.7251" y="-15.4" font-family="sans-serif" font-size="14.00" fill="#000000"> &#160;Module</text>
<polygon fill="#80b1d3" stroke="transparent" points="518,-10 518,-30 538,-30 538,-10 518,-10"/>
<text text-anchor="start" x="541.7812" y="-15.4" font-family="sans-serif" font-size="14.00" fill="#000000"> &#160;Bootstrap</text>
<polygon fill="#fdb462" stroke="transparent" points="615,-10 615,-30 635,-30 635,-10 615,-10"/>
<text text-anchor="start" x="638.6732" y="-15.4" font-family="sans-serif" font-size="14.00" fill="#000000"> &#160;Providers</text>
<polygon fill="#fb8072" stroke="transparent" points="711,-10 711,-30 731,-30 731,-10 711,-10"/>
<text text-anchor="start" x="734.7258" y="-15.4" font-family="sans-serif" font-size="14.00" fill="#000000"> &#160;Exports</text>
<g id="clust1" class="cluster">
<title>cluster_AppModule</title>
<polygon fill="none" stroke="#000000" stroke-dasharray="1,5" points="8,-184.5901 8,-450.5901 288,-450.5901 288,-184.5901 8,-184.5901"/>
</g>
<g id="clust2" class="cluster">
<title>cluster_AppModule_declarations</title>
<polygon fill="none" stroke="#000000" points="16,-260.5901 16,-312.5901 138,-312.5901 138,-260.5901 16,-260.5901"/>
</g>
<g id="clust3" class="cluster">
<title>cluster_AppModule_AppComponent_providers</title>
<polygon fill="none" stroke="#000000" points="16,-192.5901 16,-244.5901 146,-244.5901 146,-192.5901 16,-192.5901"/>
</g>
<g id="clust4" class="cluster">
<title>cluster_AppModule_imports</title>
<polygon fill="none" stroke="#000000" points="146,-260.5901 146,-312.5901 280,-312.5901 280,-260.5901 146,-260.5901"/>
</g>
<g id="clust6" class="cluster">
<title>cluster_AppModule_bootstrap</title>
<polygon fill="none" stroke="#000000" points="83,-390.5901 83,-442.5901 207,-442.5901 207,-390.5901 83,-390.5901"/>
</g>
<g id="clust8" class="cluster">
<title>cluster_NgxEditorModule</title>
<polygon fill="none" stroke="#000000" stroke-dasharray="1,5" points="296,-70 296,-252.5901 1098,-252.5901 1098,-70 296,-70"/>
</g>
<g id="clust9" class="cluster">
<title>cluster_NgxEditorModule_declarations</title>
<polygon fill="none" stroke="#000000" points="304,-192.5901 304,-244.5901 1036,-244.5901 1036,-192.5901 304,-192.5901"/>
</g>
<g id="clust10" class="cluster">
<title>cluster_NgxEditorModule_NgxEditorComponent_providers</title>
<polygon fill="none" stroke="#000000" points="304,-78 304,-176.5901 502,-176.5901 502,-78 304,-78"/>
</g>
<g id="clust15" class="cluster">
<title>cluster_NgxEditorModule_exports</title>
<polygon fill="none" stroke="#000000" points="510,-101.295 510,-153.295 670,-153.295 670,-101.295 510,-101.295"/>
</g>
<g id="clust17" class="cluster">
<title>cluster_NgxEditorModule_providers</title>
<polygon fill="none" stroke="#000000" points="678,-101.295 678,-153.295 1090,-153.295 1090,-101.295 678,-101.295"/>
</g>
<!-- AppComponent -->
<g id="node1" class="node">
<title>AppComponent</title>
<polygon fill="#ffffb3" stroke="#000000" points="129.9399,-304.5901 24.0601,-304.5901 24.0601,-268.5901 129.9399,-268.5901 129.9399,-304.5901"/>
<text text-anchor="middle" x="77" y="-282.3901" font-family="Times,serif" font-size="14.00" fill="#000000">AppComponent</text>
</g>
<!-- AppModule -->
<g id="node2" class="node">
<title>AppModule</title>
<polygon fill="#8dd3c7" stroke="#000000" points="186.6571,-369.5901 183.6571,-373.5901 162.6571,-373.5901 159.6571,-369.5901 103.3429,-369.5901 103.3429,-333.5901 186.6571,-333.5901 186.6571,-369.5901"/>
<text text-anchor="middle" x="145" y="-347.3901" font-family="Times,serif" font-size="14.00" fill="#000000">AppModule</text>
</g>
<!-- AppComponent&#45;&gt;AppModule -->
<g id="edge1" class="edge">
<title>AppComponent&#45;&gt;AppModule</title>
<path fill="none" stroke="#000000" d="M116.4457,-304.6962C116.4457,-304.6962 116.4457,-323.581 116.4457,-323.581"/>
<polygon fill="#000000" stroke="#000000" points="112.9457,-323.581 116.4457,-333.581 119.9457,-323.5811 112.9457,-323.581"/>
</g>
<!-- AppComponent  -->
<g id="node5" class="node">
<title>AppComponent </title>
<polygon fill="#80b1d3" stroke="#000000" points="199.439,-434.5901 90.561,-434.5901 90.561,-398.5901 199.439,-398.5901 199.439,-434.5901"/>
<text text-anchor="middle" x="145" y="-412.3901" font-family="Times,serif" font-size="14.00" fill="#000000">AppComponent </text>
</g>
<!-- AppModule&#45;&gt;AppComponent  -->
<g id="edge4" class="edge">
<title>AppModule&#45;&gt;AppComponent </title>
<path fill="none" stroke="#000000" stroke-dasharray="1,5" d="M145,-369.6962C145,-369.6962 145,-388.581 145,-388.581"/>
<polygon fill="#000000" stroke="#000000" points="141.5001,-388.581 145,-398.581 148.5001,-388.5811 141.5001,-388.581"/>
</g>
<!-- AppService -->
<g id="node3" class="node">
<title>AppService</title>
<ellipse fill="#fdb462" stroke="#000000" cx="81" cy="-218.5901" rx="56.7406" ry="18"/>
<text text-anchor="middle" x="81" y="-214.3901" font-family="Times,serif" font-size="14.00" fill="#000000">AppService</text>
</g>
<!-- AppService&#45;&gt;AppComponent -->
<g id="edge2" class="edge">
<title>AppService&#45;&gt;AppComponent</title>
<path fill="none" stroke="#000000" d="M77.0497,-236.8128C77.0497,-236.8128 77.0497,-258.317 77.0497,-258.317"/>
<polygon fill="#000000" stroke="#000000" points="73.5498,-258.317 77.0497,-268.317 80.5498,-258.3171 73.5498,-258.317"/>
</g>
<!-- NgxEditorModule -->
<g id="node4" class="node">
<title>NgxEditorModule</title>
<polygon fill="#8dd3c7" stroke="#000000" points="272.1513,-304.5901 269.1513,-308.5901 248.1513,-308.5901 245.1513,-304.5901 153.8487,-304.5901 153.8487,-268.5901 272.1513,-268.5901 272.1513,-304.5901"/>
<text text-anchor="middle" x="213" y="-282.3901" font-family="Times,serif" font-size="14.00" fill="#000000">NgxEditorModule</text>
</g>
<!-- NgxEditorModule&#45;&gt;AppModule -->
<g id="edge3" class="edge">
<title>NgxEditorModule&#45;&gt;AppModule</title>
<path fill="none" stroke="#000000" d="M170.2514,-304.6962C170.2514,-304.6962 170.2514,-323.581 170.2514,-323.581"/>
<polygon fill="#000000" stroke="#000000" points="166.7515,-323.581 170.2514,-333.581 173.7515,-323.5811 166.7515,-323.581"/>
</g>
<!-- NgxEditorComponent  -->
<g id="node11" class="node">
<title>NgxEditorComponent </title>
<polygon fill="#fb8072" stroke="#000000" points="661.9334,-145.295 518.0666,-145.295 518.0666,-109.295 661.9334,-109.295 661.9334,-145.295"/>
<text text-anchor="middle" x="590" y="-123.095" font-family="Times,serif" font-size="14.00" fill="#000000">NgxEditorComponent </text>
</g>
<!-- NgxEditorModule&#45;&gt;NgxEditorComponent  -->
<g id="edge10" class="edge">
<title>NgxEditorModule&#45;&gt;NgxEditorComponent </title>
<path fill="none" stroke="#000000" stroke-dasharray="5,2" d="M272.1584,-274.5901C357.5796,-274.5901 505.3352,-274.5901 505.3352,-274.5901 505.3352,-274.5901 505.3352,-127.5901 505.3352,-127.5901 505.3352,-127.5901 507.8278,-127.5901 507.8278,-127.5901"/>
<polygon fill="#000000" stroke="#000000" points="507.8278,-131.0902 517.8278,-127.5901 507.8277,-124.0902 507.8278,-131.0902"/>
</g>
<!-- NgxEditorComponent -->
<g id="node6" class="node">
<title>NgxEditorComponent</title>
<polygon fill="#ffffb3" stroke="#000000" points="1028.4341,-236.5901 887.5659,-236.5901 887.5659,-200.5901 1028.4341,-200.5901 1028.4341,-236.5901"/>
<text text-anchor="middle" x="958" y="-214.3901" font-family="Times,serif" font-size="14.00" fill="#000000">NgxEditorComponent</text>
</g>
<!-- NgxEditorComponent&#45;&gt;NgxEditorModule -->
<g id="edge5" class="edge">
<title>NgxEditorComponent&#45;&gt;NgxEditorModule</title>
<path fill="none" stroke="#000000" d="M958,-236.601C958,-259.0752 958,-294.5901 958,-294.5901 958,-294.5901 282.394,-294.5901 282.394,-294.5901"/>
<polygon fill="#000000" stroke="#000000" points="282.3941,-291.0902 272.394,-294.5901 282.394,-298.0902 282.3941,-291.0902"/>
</g>
<!-- NgxGrippieComponent -->
<g id="node7" class="node">
<title>NgxGrippieComponent</title>
<polygon fill="#ffffb3" stroke="#000000" points="870.2021,-236.5901 721.7979,-236.5901 721.7979,-200.5901 870.2021,-200.5901 870.2021,-236.5901"/>
<text text-anchor="middle" x="796" y="-214.3901" font-family="Times,serif" font-size="14.00" fill="#000000">NgxGrippieComponent</text>
</g>
<!-- NgxGrippieComponent&#45;&gt;NgxEditorModule -->
<g id="edge7" class="edge">
<title>NgxGrippieComponent&#45;&gt;NgxEditorModule</title>
<path fill="none" stroke="#000000" d="M796,-236.8743C796,-257.9111 796,-289.5901 796,-289.5901 796,-289.5901 282.3802,-289.5901 282.3802,-289.5901"/>
<polygon fill="#000000" stroke="#000000" points="282.3802,-286.0902 272.3802,-289.5901 282.3802,-293.0902 282.3802,-286.0902"/>
</g>
<!-- NgxEditorMessageComponent -->
<g id="node8" class="node">
<title>NgxEditorMessageComponent</title>
<polygon fill="#ffffb3" stroke="#000000" points="703.9114,-236.5901 514.0886,-236.5901 514.0886,-200.5901 703.9114,-200.5901 703.9114,-236.5901"/>
<text text-anchor="middle" x="609" y="-214.3901" font-family="Times,serif" font-size="14.00" fill="#000000">NgxEditorMessageComponent</text>
</g>
<!-- NgxEditorMessageComponent&#45;&gt;NgxEditorModule -->
<g id="edge8" class="edge">
<title>NgxEditorMessageComponent&#45;&gt;NgxEditorModule</title>
<path fill="none" stroke="#000000" d="M609,-236.8921C609,-254.86 609,-279.5901 609,-279.5901 609,-279.5901 282.2852,-279.5901 282.2852,-279.5901"/>
<polygon fill="#000000" stroke="#000000" points="282.2852,-276.0902 272.2852,-279.5901 282.2852,-283.0902 282.2852,-276.0902"/>
</g>
<!-- NgxEditorToolbarComponent -->
<g id="node9" class="node">
<title>NgxEditorToolbarComponent</title>
<polygon fill="#ffffb3" stroke="#000000" points="496.252,-236.5901 311.748,-236.5901 311.748,-200.5901 496.252,-200.5901 496.252,-236.5901"/>
<text text-anchor="middle" x="404" y="-214.3901" font-family="Times,serif" font-size="14.00" fill="#000000">NgxEditorToolbarComponent</text>
</g>
<!-- NgxEditorToolbarComponent&#45;&gt;NgxEditorModule -->
<g id="edge9" class="edge">
<title>NgxEditorToolbarComponent&#45;&gt;NgxEditorModule</title>
<path fill="none" stroke="#000000" d="M311.5772,-218.5901C262.8238,-218.5901 213,-218.5901 213,-218.5901 213,-218.5901 213,-258.3673 213,-258.3673"/>
<polygon fill="#000000" stroke="#000000" points="209.5001,-258.3673 213,-268.3673 216.5001,-258.3674 209.5001,-258.3673"/>
</g>
<!-- {
 &#160;&#160;&#160;: , : (() =&gt; ), : true
} -->
<g id="node10" class="node">
<title>{
 &#160;&#160;&#160;: , : (() =&gt; ), : true
}</title>
<ellipse fill="#fdb462" stroke="#000000" cx="403" cy="-127.295" rx="91.4557" ry="41.0911"/>
<text text-anchor="middle" x="403" y="-139.895" font-family="Times,serif" font-size="14.00" fill="#000000">{</text>
<text text-anchor="middle" x="403" y="-123.095" font-family="Times,serif" font-size="14.00" fill="#000000"> &#160;&#160;&#160;: , : (() =&gt; ), : true</text>
<text text-anchor="middle" x="403" y="-106.295" font-family="Times,serif" font-size="14.00" fill="#000000">}</text>
</g>
<!-- {
 &#160;&#160;&#160;: , : (() =&gt; ), : true
}&#45;&gt;NgxEditorComponent -->
<g id="edge6" class="edge">
<title>{
 &#160;&#160;&#160;: , : (() =&gt; ), : true
}&#45;&gt;NgxEditorComponent</title>
<path fill="none" stroke="#000000" d="M465.1816,-157.5901C598.9297,-157.5901 901.9343,-157.5901 901.9343,-157.5901 901.9343,-157.5901 901.9343,-190.2881 901.9343,-190.2881"/>
<polygon fill="#000000" stroke="#000000" points="898.4344,-190.288 901.9343,-200.2881 905.4344,-190.2881 898.4344,-190.288"/>
</g>
<!-- CommandExecutorService -->
<g id="node12" class="node">
<title>CommandExecutorService</title>
<ellipse fill="#fdb462" stroke="#000000" cx="801" cy="-127.295" rx="115.1706" ry="18"/>
<text text-anchor="middle" x="801" y="-123.095" font-family="Times,serif" font-size="14.00" fill="#000000">CommandExecutorService</text>
</g>
<!-- CommandExecutorService&#45;&gt;NgxEditorModule -->
<g id="edge11" class="edge">
<title>CommandExecutorService&#45;&gt;NgxEditorModule</title>
<path fill="none" stroke="#000000" d="M712.8023,-138.8613C712.8023,-175.1867 712.8023,-284.5901 712.8023,-284.5901 712.8023,-284.5901 282.2966,-284.5901 282.2966,-284.5901"/>
<polygon fill="#000000" stroke="#000000" points="282.2966,-281.0902 272.2966,-284.5901 282.2965,-288.0902 282.2966,-281.0902"/>
</g>
<!-- MessageService -->
<g id="node13" class="node">
<title>MessageService</title>
<ellipse fill="#fdb462" stroke="#000000" cx="1008" cy="-127.295" rx="73.5522" ry="18"/>
<text text-anchor="middle" x="1008" y="-123.095" font-family="Times,serif" font-size="14.00" fill="#000000">MessageService</text>
</g>
<!-- MessageService&#45;&gt;NgxEditorModule -->
<g id="edge12" class="edge">
<title>MessageService&#45;&gt;NgxEditorModule</title>
<path fill="none" stroke="#000000" d="M1054.9962,-141.3947C1054.9962,-182.5438 1054.9962,-299.5901 1054.9962,-299.5901 1054.9962,-299.5901 282.2075,-299.5901 282.2075,-299.5901"/>
<polygon fill="#000000" stroke="#000000" points="282.2076,-296.0902 272.2075,-299.5901 282.2075,-303.0902 282.2076,-296.0902"/>
</g>
</g>
</svg>
