<?xml version="1.0" encoding="UTF-8" standalone="no"?>
<!DOCTYPE svg PUBLIC "-//W3C//DTD SVG 1.1//EN"
 "http://www.w3.org/Graphics/SVG/1.1/DTD/svg11.dtd">
<!-- Generated by graphviz version 2.40.1 (20161225.0304)
 -->
<!-- Title: dependencies Pages: 1 -->
<svg width="891pt" height="472pt"
 viewBox="0.00 0.00 891.00 471.59" xmlns="http://www.w3.org/2000/svg" xmlns:xlink="http://www.w3.org/1999/xlink">
<g id="graph0" class="graph" transform="scale(1 1) rotate(0) translate(4 467.5901)">
<title>dependencies</title>
<polygon fill="#ffffff" stroke="transparent" points="-4,4 -4,-467.5901 887,-467.5901 887,4 -4,4"/>
<text text-anchor="start" x="420.5091" y="-42.4" font-family="sans-serif" font-weight="bold" font-size="14.00" fill="#000000">Legend</text>
<polygon fill="#ffffb3" stroke="transparent" points="207.5,-10 207.5,-30 227.5,-30 227.5,-10 207.5,-10"/>
<text text-anchor="start" x="231.129" y="-15.4" font-family="sans-serif" font-size="14.00" fill="#000000"> &#160;Declarations</text>
<polygon fill="#8dd3c7" stroke="transparent" points="320.5,-10 320.5,-30 340.5,-30 340.5,-10 320.5,-10"/>
<text text-anchor="start" x="344.2251" y="-15.4" font-family="sans-serif" font-size="14.00" fill="#000000"> &#160;Module</text>
<polygon fill="#80b1d3" stroke="transparent" points="406.5,-10 406.5,-30 426.5,-30 426.5,-10 406.5,-10"/>
<text text-anchor="start" x="430.2812" y="-15.4" font-family="sans-serif" font-size="14.00" fill="#000000"> &#160;Bootstrap</text>
<polygon fill="#fdb462" stroke="transparent" points="503.5,-10 503.5,-30 523.5,-30 523.5,-10 503.5,-10"/>
<text text-anchor="start" x="527.1732" y="-15.4" font-family="sans-serif" font-size="14.00" fill="#000000"> &#160;Providers</text>
<polygon fill="#fb8072" stroke="transparent" points="599.5,-10 599.5,-30 619.5,-30 619.5,-10 599.5,-10"/>
<text text-anchor="start" x="623.2258" y="-15.4" font-family="sans-serif" font-size="14.00" fill="#000000"> &#160;Exports</text>
<g id="clust1" class="cluster">
<title>cluster_AppModule</title>
<polygon fill="none" stroke="#000000" stroke-dasharray="1,5" points="595,-257.5901 595,-455.5901 875,-455.5901 875,-257.5901 595,-257.5901"/>
</g>
<g id="clust2" class="cluster">
<title>cluster_AppModule_declarations</title>
<polygon fill="none" stroke="#000000" points="745,-265.5901 745,-317.5901 867,-317.5901 867,-265.5901 745,-265.5901"/>
</g>
<g id="clust4" class="cluster">
<title>cluster_AppModule_imports</title>
<polygon fill="none" stroke="#000000" points="603,-265.5901 603,-317.5901 737,-317.5901 737,-265.5901 603,-265.5901"/>
</g>
<g id="clust6" class="cluster">
<title>cluster_AppModule_bootstrap</title>
<polygon fill="none" stroke="#000000" points="675,-395.5901 675,-447.5901 799,-447.5901 799,-395.5901 675,-395.5901"/>
</g>
<g id="clust8" class="cluster">
<title>cluster_NgxEditorModule</title>
<polygon fill="none" stroke="#000000" stroke-dasharray="1,5" points="8,-70 8,-249.5901 810,-249.5901 810,-70 8,-70"/>
</g>
<g id="clust9" class="cluster">
<title>cluster_NgxEditorModule_declarations</title>
<polygon fill="none" stroke="#000000" points="16,-189.5901 16,-241.5901 748,-241.5901 748,-189.5901 16,-189.5901"/>
</g>
<g id="clust10" class="cluster">
<title>cluster_NgxEditorModule_NgxEditorComponent_providers</title>
<polygon fill="none" stroke="#000000" points="16,-78 16,-176.5901 214,-176.5901 214,-78 16,-78"/>
</g>
<g id="clust15" class="cluster">
<title>cluster_NgxEditorModule_exports</title>
<polygon fill="none" stroke="#000000" points="222,-101.295 222,-153.295 382,-153.295 382,-101.295 222,-101.295"/>
</g>
<g id="clust17" class="cluster">
<title>cluster_NgxEditorModule_providers</title>
<polygon fill="none" stroke="#000000" points="390,-101.295 390,-153.295 802,-153.295 802,-101.295 390,-101.295"/>
</g>
<!-- AppComponent -->
<g id="node1" class="node">
<title>AppComponent</title>
<polygon fill="#ffffb3" stroke="#000000" points="858.9399,-309.5901 753.0601,-309.5901 753.0601,-273.5901 858.9399,-273.5901 858.9399,-309.5901"/>
<text text-anchor="middle" x="806" y="-287.3901" font-family="Times,serif" font-size="14.00" fill="#000000">AppComponent</text>
</g>
<!-- AppModule -->
<g id="node2" class="node">
<title>AppModule</title>
<polygon fill="#8dd3c7" stroke="#000000" points="778.6571,-374.5901 775.6571,-378.5901 754.6571,-378.5901 751.6571,-374.5901 695.3429,-374.5901 695.3429,-338.5901 778.6571,-338.5901 778.6571,-374.5901"/>
<text text-anchor="middle" x="737" y="-352.3901" font-family="Times,serif" font-size="14.00" fill="#000000">AppModule</text>
</g>
<!-- AppComponent&#45;&gt;AppModule -->
<g id="edge1" class="edge">
<title>AppComponent&#45;&gt;AppModule</title>
<path fill="none" stroke="#000000" d="M766.0544,-309.6962C766.0544,-309.6962 766.0544,-328.581 766.0544,-328.581"/>
<polygon fill="#000000" stroke="#000000" points="762.5544,-328.581 766.0544,-338.581 769.5544,-328.5811 762.5544,-328.581"/>
</g>
<!-- AppComponent  -->
<g id="node4" class="node">
<title>AppComponent </title>
<polygon fill="#80b1d3" stroke="#000000" points="791.439,-439.5901 682.561,-439.5901 682.561,-403.5901 791.439,-403.5901 791.439,-439.5901"/>
<text text-anchor="middle" x="737" y="-417.3901" font-family="Times,serif" font-size="14.00" fill="#000000">AppComponent </text>
</g>
<!-- AppModule&#45;&gt;AppComponent  -->
<g id="edge3" class="edge">
<title>AppModule&#45;&gt;AppComponent </title>
<path fill="none" stroke="#000000" stroke-dasharray="1,5" d="M737,-374.6962C737,-374.6962 737,-393.581 737,-393.581"/>
<polygon fill="#000000" stroke="#000000" points="733.5001,-393.581 737,-403.581 740.5001,-393.5811 733.5001,-393.581"/>
</g>
<!-- NgxEditorModule -->
<g id="node3" class="node">
<title>NgxEditorModule</title>
<polygon fill="#8dd3c7" stroke="#000000" points="729.1513,-309.5901 726.1513,-313.5901 705.1513,-313.5901 702.1513,-309.5901 610.8487,-309.5901 610.8487,-273.5901 729.1513,-273.5901 729.1513,-309.5901"/>
<text text-anchor="middle" x="670" y="-287.3901" font-family="Times,serif" font-size="14.00" fill="#000000">NgxEditorModule</text>
</g>
<!-- NgxEditorModule&#45;&gt;AppModule -->
<g id="edge2" class="edge">
<title>NgxEditorModule&#45;&gt;AppModule</title>
<path fill="none" stroke="#000000" d="M712.2486,-309.6962C712.2486,-309.6962 712.2486,-328.581 712.2486,-328.581"/>
<polygon fill="#000000" stroke="#000000" points="708.7487,-328.581 712.2486,-338.581 715.7487,-328.5811 708.7487,-328.581"/>
</g>
<!-- NgxEditorComponent  -->
<g id="node10" class="node">
<title>NgxEditorComponent </title>
<polygon fill="#fb8072" stroke="#000000" points="373.9334,-145.295 230.0666,-145.295 230.0666,-109.295 373.9334,-109.295 373.9334,-145.295"/>
<text text-anchor="middle" x="302" y="-123.095" font-family="Times,serif" font-size="14.00" fill="#000000">NgxEditorComponent </text>
</g>
<!-- NgxEditorModule&#45;&gt;NgxEditorComponent  -->
<g id="edge9" class="edge">
<title>NgxEditorModule&#45;&gt;NgxEditorComponent </title>
<path fill="none" stroke="#000000" stroke-dasharray="5,2" d="M610.822,-297.5901C488.1218,-297.5901 217.3352,-297.5901 217.3352,-297.5901 217.3352,-297.5901 217.3352,-127.5901 217.3352,-127.5901 217.3352,-127.5901 219.8278,-127.5901 219.8278,-127.5901"/>
<polygon fill="#000000" stroke="#000000" points="219.8278,-131.0902 229.8278,-127.5901 219.8277,-124.0902 219.8278,-131.0902"/>
</g>
<!-- NgxEditorComponent -->
<g id="node5" class="node">
<title>NgxEditorComponent</title>
<polygon fill="#ffffb3" stroke="#000000" points="740.4341,-233.5901 599.5659,-233.5901 599.5659,-197.5901 740.4341,-197.5901 740.4341,-233.5901"/>
<text text-anchor="middle" x="670" y="-211.3901" font-family="Times,serif" font-size="14.00" fill="#000000">NgxEditorComponent</text>
</g>
<!-- NgxEditorComponent&#45;&gt;NgxEditorModule -->
<g id="edge4" class="edge">
<title>NgxEditorComponent&#45;&gt;NgxEditorModule</title>
<path fill="none" stroke="#000000" d="M670,-233.601C670,-233.601 670,-263.445 670,-263.445"/>
<polygon fill="#000000" stroke="#000000" points="666.5001,-263.445 670,-273.445 673.5001,-263.4451 666.5001,-263.445"/>
</g>
<!-- NgxGrippieComponent -->
<g id="node6" class="node">
<title>NgxGrippieComponent</title>
<polygon fill="#ffffb3" stroke="#000000" points="582.2021,-233.5901 433.7979,-233.5901 433.7979,-197.5901 582.2021,-197.5901 582.2021,-233.5901"/>
<text text-anchor="middle" x="508" y="-211.3901" font-family="Times,serif" font-size="14.00" fill="#000000">NgxGrippieComponent</text>
</g>
<!-- NgxGrippieComponent&#45;&gt;NgxEditorModule -->
<g id="edge6" class="edge">
<title>NgxGrippieComponent&#45;&gt;NgxEditorModule</title>
<path fill="none" stroke="#000000" d="M508,-233.6168C508,-254.3573 508,-285.5901 508,-285.5901 508,-285.5901 600.5971,-285.5901 600.5971,-285.5901"/>
<polygon fill="#000000" stroke="#000000" points="600.5971,-289.0902 610.5971,-285.5901 600.597,-282.0902 600.5971,-289.0902"/>
</g>
<!-- NgxEditorMessageComponent -->
<g id="node7" class="node">
<title>NgxEditorMessageComponent</title>
<polygon fill="#ffffb3" stroke="#000000" points="415.9114,-233.5901 226.0886,-233.5901 226.0886,-197.5901 415.9114,-197.5901 415.9114,-233.5901"/>
<text text-anchor="middle" x="321" y="-211.3901" font-family="Times,serif" font-size="14.00" fill="#000000">NgxEditorMessageComponent</text>
</g>
<!-- NgxEditorMessageComponent&#45;&gt;NgxEditorModule -->
<g id="edge7" class="edge">
<title>NgxEditorMessageComponent&#45;&gt;NgxEditorModule</title>
<path fill="none" stroke="#000000" d="M321,-233.601C321,-256.0752 321,-291.5901 321,-291.5901 321,-291.5901 600.7969,-291.5901 600.7969,-291.5901"/>
<polygon fill="#000000" stroke="#000000" points="600.7969,-295.0902 610.7969,-291.5901 600.7969,-288.0902 600.7969,-295.0902"/>
</g>
<!-- NgxEditorToolbarComponent -->
<g id="node8" class="node">
<title>NgxEditorToolbarComponent</title>
<polygon fill="#ffffb3" stroke="#000000" points="208.252,-233.5901 23.748,-233.5901 23.748,-197.5901 208.252,-197.5901 208.252,-233.5901"/>
<text text-anchor="middle" x="116" y="-211.3901" font-family="Times,serif" font-size="14.00" fill="#000000">NgxEditorToolbarComponent</text>
</g>
<!-- NgxEditorToolbarComponent&#45;&gt;NgxEditorModule -->
<g id="edge8" class="edge">
<title>NgxEditorToolbarComponent&#45;&gt;NgxEditorModule</title>
<path fill="none" stroke="#000000" d="M116,-233.8237C116,-259.5995 116,-303.5901 116,-303.5901 116,-303.5901 600.7123,-303.5901 600.7123,-303.5901"/>
<polygon fill="#000000" stroke="#000000" points="600.7123,-307.0902 610.7123,-303.5901 600.7123,-300.0902 600.7123,-307.0902"/>
</g>
<!-- {
 &#160;&#160;&#160;: , : (() =&gt; ), : true
} -->
<g id="node9" class="node">
<title>{
 &#160;&#160;&#160;: , : (() =&gt; ), : true
}</title>
<ellipse fill="#fdb462" stroke="#000000" cx="115" cy="-127.295" rx="91.4557" ry="41.0911"/>
<text text-anchor="middle" x="115" y="-139.895" font-family="Times,serif" font-size="14.00" fill="#000000">{</text>
<text text-anchor="middle" x="115" y="-123.095" font-family="Times,serif" font-size="14.00" fill="#000000"> &#160;&#160;&#160;: , : (() =&gt; ), : true</text>
<text text-anchor="middle" x="115" y="-106.295" font-family="Times,serif" font-size="14.00" fill="#000000">}</text>
</g>
<!-- {
 &#160;&#160;&#160;: , : (() =&gt; ), : true
}&#45;&gt;NgxEditorComponent -->
<g id="edge5" class="edge">
<title>{
 &#160;&#160;&#160;: , : (() =&gt; ), : true
}&#45;&gt;NgxEditorComponent</title>
<path fill="none" stroke="#000000" d="M177.1816,-157.5901C310.9297,-157.5901 613.9343,-157.5901 613.9343,-157.5901 613.9343,-157.5901 613.9343,-187.5564 613.9343,-187.5564"/>
<polygon fill="#000000" stroke="#000000" points="610.4344,-187.5564 613.9343,-197.5564 617.4344,-187.5565 610.4344,-187.5564"/>
</g>
<!-- CommandExecutorService -->
<g id="node11" class="node">
<title>CommandExecutorService</title>
<ellipse fill="#fdb462" stroke="#000000" cx="513" cy="-127.295" rx="115.1706" ry="18"/>
<text text-anchor="middle" x="513" y="-123.095" font-family="Times,serif" font-size="14.00" fill="#000000">CommandExecutorService</text>
</g>
<!-- CommandExecutorService&#45;&gt;NgxEditorModule -->
<g id="edge10" class="edge">
<title>CommandExecutorService&#45;&gt;NgxEditorModule</title>
<path fill="none" stroke="#000000" d="M590.9422,-140.5438C590.9422,-177.5962 590.9422,-279.5901 590.9422,-279.5901 590.9422,-279.5901 600.4845,-279.5901 600.4845,-279.5901"/>
<polygon fill="#000000" stroke="#000000" points="600.4846,-283.0902 610.4845,-279.5901 600.4845,-276.0902 600.4846,-283.0902"/>
</g>
<!-- MessageService -->
<g id="node12" class="node">
<title>MessageService</title>
<ellipse fill="#fdb462" stroke="#000000" cx="720" cy="-127.295" rx="73.5522" ry="18"/>
<text text-anchor="middle" x="720" y="-123.095" font-family="Times,serif" font-size="14.00" fill="#000000">MessageService</text>
</g>
<!-- MessageService&#45;&gt;NgxEditorModule -->
<g id="edge11" class="edge">
<title>MessageService&#45;&gt;NgxEditorModule</title>
<path fill="none" stroke="#000000" d="M746.7486,-144.2587C746.7486,-186.2358 746.7486,-291.5901 746.7486,-291.5901 746.7486,-291.5901 739.3332,-291.5901 739.3332,-291.5901"/>
<polygon fill="#000000" stroke="#000000" points="739.3332,-288.0902 729.3332,-291.5901 739.3331,-295.0902 739.3332,-288.0902"/>
</g>
</g>
</svg>
