<?xml version="1.0" encoding="UTF-8" standalone="no"?>
<!DOCTYPE svg PUBLIC "-//W3C//DTD SVG 1.1//EN"
 "http://www.w3.org/Graphics/SVG/1.1/DTD/svg11.dtd">
<!-- Generated by graphviz version 2.40.1 (20161225.0304)
 -->
<!-- Title: dependencies Pages: 1 -->
<svg width="1648pt" height="352pt"
 viewBox="0.00 0.00 1648.00 352.00" xmlns="http://www.w3.org/2000/svg" xmlns:xlink="http://www.w3.org/1999/xlink">
<g id="graph0" class="graph" transform="scale(1 1) rotate(0) translate(4 348)">
<title>dependencies</title>
<polygon fill="#ffffff" stroke="transparent" points="-4,4 -4,-348 1644,-348 1644,4 -4,4"/>
<text text-anchor="start" x="799.0091" y="-42.4" font-family="sans-serif" font-weight="bold" font-size="14.00" fill="#000000">Legend</text>
<polygon fill="#ffffb3" stroke="transparent" points="586,-10 586,-30 606,-30 606,-10 586,-10"/>
<text text-anchor="start" x="609.629" y="-15.4" font-family="sans-serif" font-size="14.00" fill="#000000"> &#160;Declarations</text>
<polygon fill="#8dd3c7" stroke="transparent" points="699,-10 699,-30 719,-30 719,-10 699,-10"/>
<text text-anchor="start" x="722.7251" y="-15.4" font-family="sans-serif" font-size="14.00" fill="#000000"> &#160;Module</text>
<polygon fill="#80b1d3" stroke="transparent" points="785,-10 785,-30 805,-30 805,-10 785,-10"/>
<text text-anchor="start" x="808.7812" y="-15.4" font-family="sans-serif" font-size="14.00" fill="#000000"> &#160;Bootstrap</text>
<polygon fill="#fdb462" stroke="transparent" points="882,-10 882,-30 902,-30 902,-10 882,-10"/>
<text text-anchor="start" x="905.6732" y="-15.4" font-family="sans-serif" font-size="14.00" fill="#000000"> &#160;Providers</text>
<polygon fill="#fb8072" stroke="transparent" points="978,-10 978,-30 998,-30 998,-10 978,-10"/>
<text text-anchor="start" x="1001.7258" y="-15.4" font-family="sans-serif" font-size="14.00" fill="#000000"> &#160;Exports</text>
<g id="clust1" class="cluster">
<title>cluster_AppModule</title>
<polygon fill="none" stroke="#000000" stroke-dasharray="1,5" points="8,-70 8,-336 288,-336 288,-70 8,-70"/>
</g>
<g id="clust2" class="cluster">
<title>cluster_AppModule_declarations</title>
<polygon fill="none" stroke="#000000" points="16,-146 16,-198 138,-198 138,-146 16,-146"/>
</g>
<g id="clust3" class="cluster">
<title>cluster_AppModule_AppComponent_providers</title>
<polygon fill="none" stroke="#000000" points="16,-78 16,-130 146,-130 146,-78 16,-78"/>
</g>
<g id="clust4" class="cluster">
<title>cluster_AppModule_imports</title>
<polygon fill="none" stroke="#000000" points="146,-146 146,-198 280,-198 280,-146 146,-146"/>
</g>
<g id="clust6" class="cluster">
<title>cluster_AppModule_bootstrap</title>
<polygon fill="none" stroke="#000000" points="83,-276 83,-328 207,-328 207,-276 83,-276"/>
</g>
<g id="clust8" class="cluster">
<title>cluster_NgxEditorModule</title>
<polygon fill="none" stroke="#000000" stroke-dasharray="1,5" points="296,-70 296,-138 1632,-138 1632,-70 296,-70"/>
</g>
<g id="clust9" class="cluster">
<title>cluster_NgxEditorModule_declarations</title>
<polygon fill="none" stroke="#000000" points="892,-78 892,-130 1624,-130 1624,-78 892,-78"/>
</g>
<g id="clust15" class="cluster">
<title>cluster_NgxEditorModule_exports</title>
<polygon fill="none" stroke="#000000" points="724,-78 724,-130 884,-130 884,-78 724,-78"/>
</g>
<g id="clust17" class="cluster">
<title>cluster_NgxEditorModule_providers</title>
<polygon fill="none" stroke="#000000" points="304,-78 304,-130 716,-130 716,-78 304,-78"/>
</g>
<!-- AppComponent -->
<g id="node1" class="node">
<title>AppComponent</title>
<polygon fill="#ffffb3" stroke="#000000" points="129.9399,-190 24.0601,-190 24.0601,-154 129.9399,-154 129.9399,-190"/>
<text text-anchor="middle" x="77" y="-167.8" font-family="Times,serif" font-size="14.00" fill="#000000">AppComponent</text>
</g>
<!-- AppModule -->
<g id="node2" class="node">
<title>AppModule</title>
<polygon fill="#8dd3c7" stroke="#000000" points="186.6571,-255 183.6571,-259 162.6571,-259 159.6571,-255 103.3429,-255 103.3429,-219 186.6571,-219 186.6571,-255"/>
<text text-anchor="middle" x="145" y="-232.8" font-family="Times,serif" font-size="14.00" fill="#000000">AppModule</text>
</g>
<!-- AppComponent&#45;&gt;AppModule -->
<g id="edge1" class="edge">
<title>AppComponent&#45;&gt;AppModule</title>
<path fill="none" stroke="#000000" d="M116.4457,-190.1061C116.4457,-190.1061 116.4457,-208.991 116.4457,-208.991"/>
<polygon fill="#000000" stroke="#000000" points="112.9457,-208.9909 116.4457,-218.991 119.9457,-208.991 112.9457,-208.9909"/>
</g>
<!-- AppComponent  -->
<g id="node5" class="node">
<title>AppComponent </title>
<polygon fill="#80b1d3" stroke="#000000" points="199.439,-320 90.561,-320 90.561,-284 199.439,-284 199.439,-320"/>
<text text-anchor="middle" x="145" y="-297.8" font-family="Times,serif" font-size="14.00" fill="#000000">AppComponent </text>
</g>
<!-- AppModule&#45;&gt;AppComponent  -->
<g id="edge4" class="edge">
<title>AppModule&#45;&gt;AppComponent </title>
<path fill="none" stroke="#000000" stroke-dasharray="1,5" d="M145,-255.1061C145,-255.1061 145,-273.991 145,-273.991"/>
<polygon fill="#000000" stroke="#000000" points="141.5001,-273.9909 145,-283.991 148.5001,-273.991 141.5001,-273.9909"/>
</g>
<!-- AppService -->
<g id="node3" class="node">
<title>AppService</title>
<ellipse fill="#fdb462" stroke="#000000" cx="81" cy="-104" rx="56.7406" ry="18"/>
<text text-anchor="middle" x="81" y="-99.8" font-family="Times,serif" font-size="14.00" fill="#000000">AppService</text>
</g>
<!-- AppService&#45;&gt;AppComponent -->
<g id="edge2" class="edge">
<title>AppService&#45;&gt;AppComponent</title>
<path fill="none" stroke="#000000" d="M77.0497,-122.2228C77.0497,-122.2228 77.0497,-143.7269 77.0497,-143.7269"/>
<polygon fill="#000000" stroke="#000000" points="73.5498,-143.7269 77.0497,-153.7269 80.5498,-143.727 73.5498,-143.7269"/>
</g>
<!-- NgxEditorModule -->
<g id="node4" class="node">
<title>NgxEditorModule</title>
<polygon fill="#8dd3c7" stroke="#000000" points="272.1513,-190 269.1513,-194 248.1513,-194 245.1513,-190 153.8487,-190 153.8487,-154 272.1513,-154 272.1513,-190"/>
<text text-anchor="middle" x="213" y="-167.8" font-family="Times,serif" font-size="14.00" fill="#000000">NgxEditorModule</text>
</g>
<!-- NgxEditorModule&#45;&gt;AppModule -->
<g id="edge3" class="edge">
<title>NgxEditorModule&#45;&gt;AppModule</title>
<path fill="none" stroke="#000000" d="M170.2514,-190.1061C170.2514,-190.1061 170.2514,-208.991 170.2514,-208.991"/>
<polygon fill="#000000" stroke="#000000" points="166.7515,-208.9909 170.2514,-218.991 173.7515,-208.991 166.7515,-208.9909"/>
</g>
<!-- NgxEditorComponent  -->
<g id="node10" class="node">
<title>NgxEditorComponent </title>
<polygon fill="#fb8072" stroke="#000000" points="875.9334,-122 732.0666,-122 732.0666,-86 875.9334,-86 875.9334,-122"/>
<text text-anchor="middle" x="804" y="-99.8" font-family="Times,serif" font-size="14.00" fill="#000000">NgxEditorComponent </text>
</g>
<!-- NgxEditorModule&#45;&gt;NgxEditorComponent  -->
<g id="edge9" class="edge">
<title>NgxEditorModule&#45;&gt;NgxEditorComponent </title>
<path fill="none" stroke="#000000" stroke-dasharray="5,2" d="M272.3733,-165C422.2428,-165 804,-165 804,-165 804,-165 804,-132.302 804,-132.302"/>
<polygon fill="#000000" stroke="#000000" points="807.5001,-132.302 804,-122.302 800.5001,-132.302 807.5001,-132.302"/>
</g>
<!-- NgxEditorComponent -->
<g id="node6" class="node">
<title>NgxEditorComponent</title>
<polygon fill="#ffffb3" stroke="#000000" points="1616.4341,-122 1475.5659,-122 1475.5659,-86 1616.4341,-86 1616.4341,-122"/>
<text text-anchor="middle" x="1546" y="-99.8" font-family="Times,serif" font-size="14.00" fill="#000000">NgxEditorComponent</text>
</g>
<!-- NgxEditorComponent&#45;&gt;NgxEditorModule -->
<g id="edge5" class="edge">
<title>NgxEditorComponent&#45;&gt;NgxEditorModule</title>
<path fill="none" stroke="#000000" d="M1546,-122.3802C1546,-146.2785 1546,-185 1546,-185 1546,-185 282.4309,-185 282.4309,-185"/>
<polygon fill="#000000" stroke="#000000" points="282.4309,-181.5001 272.4309,-185 282.4308,-188.5001 282.4309,-181.5001"/>
</g>
<!-- NgxGrippieComponent -->
<g id="node7" class="node">
<title>NgxGrippieComponent</title>
<polygon fill="#ffffb3" stroke="#000000" points="1458.2021,-122 1309.7979,-122 1309.7979,-86 1458.2021,-86 1458.2021,-122"/>
<text text-anchor="middle" x="1384" y="-99.8" font-family="Times,serif" font-size="14.00" fill="#000000">NgxGrippieComponent</text>
</g>
<!-- NgxGrippieComponent&#45;&gt;NgxEditorModule -->
<g id="edge6" class="edge">
<title>NgxGrippieComponent&#45;&gt;NgxEditorModule</title>
<path fill="none" stroke="#000000" d="M1384,-122.0109C1384,-144.4852 1384,-180 1384,-180 1384,-180 282.2757,-180 282.2757,-180"/>
<polygon fill="#000000" stroke="#000000" points="282.2757,-176.5001 272.2757,-180 282.2756,-183.5001 282.2757,-176.5001"/>
</g>
<!-- NgxEditorMessageComponent -->
<g id="node8" class="node">
<title>NgxEditorMessageComponent</title>
<polygon fill="#ffffb3" stroke="#000000" points="1291.9114,-122 1102.0886,-122 1102.0886,-86 1291.9114,-86 1291.9114,-122"/>
<text text-anchor="middle" x="1197" y="-99.8" font-family="Times,serif" font-size="14.00" fill="#000000">NgxEditorMessageComponent</text>
</g>
<!-- NgxEditorMessageComponent&#45;&gt;NgxEditorModule -->
<g id="edge7" class="edge">
<title>NgxEditorMessageComponent&#45;&gt;NgxEditorModule</title>
<path fill="none" stroke="#000000" d="M1197,-122.2843C1197,-143.3211 1197,-175 1197,-175 1197,-175 282.3376,-175 282.3376,-175"/>
<polygon fill="#000000" stroke="#000000" points="282.3377,-171.5001 272.3376,-175 282.3376,-178.5001 282.3377,-171.5001"/>
</g>
<!-- NgxEditorToolbarComponent -->
<g id="node9" class="node">
<title>NgxEditorToolbarComponent</title>
<polygon fill="#ffffb3" stroke="#000000" points="1084.252,-122 899.748,-122 899.748,-86 1084.252,-86 1084.252,-122"/>
<text text-anchor="middle" x="992" y="-99.8" font-family="Times,serif" font-size="14.00" fill="#000000">NgxEditorToolbarComponent</text>
</g>
<!-- NgxEditorToolbarComponent&#45;&gt;NgxEditorModule -->
<g id="edge8" class="edge">
<title>NgxEditorToolbarComponent&#45;&gt;NgxEditorModule</title>
<path fill="none" stroke="#000000" d="M992,-122.0348C992,-141.5762 992,-170 992,-170 992,-170 282.191,-170 282.191,-170"/>
<polygon fill="#000000" stroke="#000000" points="282.191,-166.5001 272.191,-170 282.191,-173.5001 282.191,-166.5001"/>
</g>
<!-- CommandExecutorService -->
<g id="node11" class="node">
<title>CommandExecutorService</title>
<ellipse fill="#fdb462" stroke="#000000" cx="593" cy="-104" rx="115.1706" ry="18"/>
<text text-anchor="middle" x="593" y="-99.8" font-family="Times,serif" font-size="14.00" fill="#000000">CommandExecutorService</text>
</g>
<!-- CommandExecutorService&#45;&gt;NgxEditorModule -->
<g id="edge10" class="edge">
<title>CommandExecutorService&#45;&gt;NgxEditorModule</title>
<path fill="none" stroke="#000000" d="M593,-122.027C593,-138.3976 593,-160 593,-160 593,-160 282.375,-160 282.375,-160"/>
<polygon fill="#000000" stroke="#000000" points="282.375,-156.5001 272.375,-160 282.375,-163.5001 282.375,-156.5001"/>
</g>
<!-- MessageService -->
<g id="node12" class="node">
<title>MessageService</title>
<ellipse fill="#fdb462" stroke="#000000" cx="386" cy="-104" rx="73.5522" ry="18"/>
<text text-anchor="middle" x="386" y="-99.8" font-family="Times,serif" font-size="14.00" fill="#000000">MessageService</text>
</g>
<!-- MessageService&#45;&gt;NgxEditorModule -->
<g id="edge11" class="edge">
<title>MessageService&#45;&gt;NgxEditorModule</title>
<path fill="none" stroke="#000000" d="M312.1306,-104C265.1097,-104 213,-104 213,-104 213,-104 213,-143.7772 213,-143.7772"/>
<polygon fill="#000000" stroke="#000000" points="209.5001,-143.7772 213,-153.7772 216.5001,-143.7773 209.5001,-143.7772"/>
</g>
</g>
</svg>
