<?xml version="1.0" encoding="UTF-8" standalone="no"?>
<!DOCTYPE svg PUBLIC "-//W3C//DTD SVG 1.1//EN"
 "http://www.w3.org/Graphics/SVG/1.1/DTD/svg11.dtd">
<!-- Generated by graphviz version 2.40.1 (20161225.0304)
 -->
<!-- Title: dependencies Pages: 1 -->
<svg width="1192pt" height="396pt"
 viewBox="0.00 0.00 1192.00 395.59" xmlns="http://www.w3.org/2000/svg" xmlns:xlink="http://www.w3.org/1999/xlink">
<g id="graph0" class="graph" transform="scale(1 1) rotate(0) translate(4 391.5901)">
<title>dependencies</title>
<polygon fill="#ffffff" stroke="transparent" points="-4,4 -4,-391.5901 1188,-391.5901 1188,4 -4,4"/>
<text text-anchor="start" x="571.0091" y="-42.4" font-family="sans-serif" font-weight="bold" font-size="14.00" fill="#000000">Legend</text>
<polygon fill="#ffffb3" stroke="transparent" points="358,-10 358,-30 378,-30 378,-10 358,-10"/>
<text text-anchor="start" x="381.629" y="-15.4" font-family="sans-serif" font-size="14.00" fill="#000000"> &#160;Declarations</text>
<polygon fill="#8dd3c7" stroke="transparent" points="471,-10 471,-30 491,-30 491,-10 471,-10"/>
<text text-anchor="start" x="494.7251" y="-15.4" font-family="sans-serif" font-size="14.00" fill="#000000"> &#160;Module</text>
<polygon fill="#80b1d3" stroke="transparent" points="557,-10 557,-30 577,-30 577,-10 557,-10"/>
<text text-anchor="start" x="580.7812" y="-15.4" font-family="sans-serif" font-size="14.00" fill="#000000"> &#160;Bootstrap</text>
<polygon fill="#fdb462" stroke="transparent" points="654,-10 654,-30 674,-30 674,-10 654,-10"/>
<text text-anchor="start" x="677.6732" y="-15.4" font-family="sans-serif" font-size="14.00" fill="#000000"> &#160;Providers</text>
<polygon fill="#fb8072" stroke="transparent" points="750,-10 750,-30 770,-30 770,-10 750,-10"/>
<text text-anchor="start" x="773.7258" y="-15.4" font-family="sans-serif" font-size="14.00" fill="#000000"> &#160;Exports</text>
<g id="clust1" class="cluster">
<title>cluster_NgxEditorModule</title>
<polygon fill="none" stroke="#000000" stroke-dasharray="1,5" points="8,-70 8,-379.5901 1176,-379.5901 1176,-70 8,-70"/>
</g>
<g id="clust2" class="cluster">
<title>cluster_NgxEditorModule_declarations</title>
<polygon fill="none" stroke="#000000" points="436,-189.5901 436,-241.5901 1168,-241.5901 1168,-189.5901 436,-189.5901"/>
</g>
<g id="clust3" class="cluster">
<title>cluster_NgxEditorModule_NgxEditorComponent_providers</title>
<polygon fill="none" stroke="#000000" points="970,-78 970,-176.5901 1168,-176.5901 1168,-78 970,-78"/>
</g>
<g id="clust8" class="cluster">
<title>cluster_NgxEditorModule_exports</title>
<polygon fill="none" stroke="#000000" points="558,-319.5901 558,-371.5901 718,-371.5901 718,-319.5901 558,-319.5901"/>
</g>
<g id="clust10" class="cluster">
<title>cluster_NgxEditorModule_providers</title>
<polygon fill="none" stroke="#000000" points="16,-189.5901 16,-241.5901 428,-241.5901 428,-189.5901 16,-189.5901"/>
</g>
<!-- NgxEditorComponent -->
<g id="node1" class="node">
<title>NgxEditorComponent</title>
<polygon fill="#ffffb3" stroke="#000000" points="1160.4341,-233.5901 1019.5659,-233.5901 1019.5659,-197.5901 1160.4341,-197.5901 1160.4341,-233.5901"/>
<text text-anchor="middle" x="1090" y="-211.3901" font-family="Times,serif" font-size="14.00" fill="#000000">NgxEditorComponent</text>
</g>
<!-- NgxEditorModule -->
<g id="node5" class="node">
<title>NgxEditorModule</title>
<polygon fill="#8dd3c7" stroke="#000000" points="697.1513,-298.5901 694.1513,-302.5901 673.1513,-302.5901 670.1513,-298.5901 578.8487,-298.5901 578.8487,-262.5901 697.1513,-262.5901 697.1513,-298.5901"/>
<text text-anchor="middle" x="638" y="-276.3901" font-family="Times,serif" font-size="14.00" fill="#000000">NgxEditorModule</text>
</g>
<!-- NgxEditorComponent&#45;&gt;NgxEditorModule -->
<g id="edge1" class="edge">
<title>NgxEditorComponent&#45;&gt;NgxEditorModule</title>
<path fill="none" stroke="#000000" d="M1090,-233.8743C1090,-254.9111 1090,-286.5901 1090,-286.5901 1090,-286.5901 707.5559,-286.5901 707.5559,-286.5901"/>
<polygon fill="#000000" stroke="#000000" points="707.5559,-283.0902 697.5559,-286.5901 707.5559,-290.0902 707.5559,-283.0902"/>
</g>
<!-- NgxGrippieComponent -->
<g id="node2" class="node">
<title>NgxGrippieComponent</title>
<polygon fill="#ffffb3" stroke="#000000" points="1002.2021,-233.5901 853.7979,-233.5901 853.7979,-197.5901 1002.2021,-197.5901 1002.2021,-233.5901"/>
<text text-anchor="middle" x="928" y="-211.3901" font-family="Times,serif" font-size="14.00" fill="#000000">NgxGrippieComponent</text>
</g>
<!-- NgxGrippieComponent&#45;&gt;NgxEditorModule -->
<g id="edge3" class="edge">
<title>NgxGrippieComponent&#45;&gt;NgxEditorModule</title>
<path fill="none" stroke="#000000" d="M928,-233.6126C928,-250.9634 928,-274.5901 928,-274.5901 928,-274.5901 707.3856,-274.5901 707.3856,-274.5901"/>
<polygon fill="#000000" stroke="#000000" points="707.3857,-271.0902 697.3856,-274.5901 707.3856,-278.0902 707.3857,-271.0902"/>
</g>
<!-- NgxEditorMessageComponent -->
<g id="node3" class="node">
<title>NgxEditorMessageComponent</title>
<polygon fill="#ffffb3" stroke="#000000" points="835.9114,-233.5901 646.0886,-233.5901 646.0886,-197.5901 835.9114,-197.5901 835.9114,-233.5901"/>
<text text-anchor="middle" x="741" y="-211.3901" font-family="Times,serif" font-size="14.00" fill="#000000">NgxEditorMessageComponent</text>
</g>
<!-- NgxEditorMessageComponent&#45;&gt;NgxEditorModule -->
<g id="edge4" class="edge">
<title>NgxEditorMessageComponent&#45;&gt;NgxEditorModule</title>
<path fill="none" stroke="#000000" d="M671.81,-233.6962C671.81,-233.6962 671.81,-252.581 671.81,-252.581"/>
<polygon fill="#000000" stroke="#000000" points="668.31,-252.581 671.81,-262.581 675.31,-252.5811 668.31,-252.581"/>
</g>
<!-- NgxEditorToolbarComponent -->
<g id="node4" class="node">
<title>NgxEditorToolbarComponent</title>
<polygon fill="#ffffb3" stroke="#000000" points="628.252,-233.5901 443.748,-233.5901 443.748,-197.5901 628.252,-197.5901 628.252,-233.5901"/>
<text text-anchor="middle" x="536" y="-211.3901" font-family="Times,serif" font-size="14.00" fill="#000000">NgxEditorToolbarComponent</text>
</g>
<!-- NgxEditorToolbarComponent&#45;&gt;NgxEditorModule -->
<g id="edge5" class="edge">
<title>NgxEditorToolbarComponent&#45;&gt;NgxEditorModule</title>
<path fill="none" stroke="#000000" d="M603.5253,-233.6962C603.5253,-233.6962 603.5253,-252.581 603.5253,-252.581"/>
<polygon fill="#000000" stroke="#000000" points="600.0253,-252.581 603.5253,-262.581 607.0253,-252.5811 600.0253,-252.581"/>
</g>
<!-- NgxEditorComponent  -->
<g id="node7" class="node">
<title>NgxEditorComponent </title>
<polygon fill="#fb8072" stroke="#000000" points="709.9334,-363.5901 566.0666,-363.5901 566.0666,-327.5901 709.9334,-327.5901 709.9334,-363.5901"/>
<text text-anchor="middle" x="638" y="-341.3901" font-family="Times,serif" font-size="14.00" fill="#000000">NgxEditorComponent </text>
</g>
<!-- NgxEditorModule&#45;&gt;NgxEditorComponent  -->
<g id="edge6" class="edge">
<title>NgxEditorModule&#45;&gt;NgxEditorComponent </title>
<path fill="none" stroke="#000000" stroke-dasharray="5,2" d="M638,-298.6962C638,-298.6962 638,-317.581 638,-317.581"/>
<polygon fill="#000000" stroke="#000000" points="634.5001,-317.581 638,-327.581 641.5001,-317.5811 634.5001,-317.581"/>
</g>
<!-- {
 &#160;&#160;&#160;: , : (() =&gt; ), : true
} -->
<g id="node6" class="node">
<title>{
 &#160;&#160;&#160;: , : (() =&gt; ), : true
}</title>
<ellipse fill="#fdb462" stroke="#000000" cx="1069" cy="-127.295" rx="91.4557" ry="41.0911"/>
<text text-anchor="middle" x="1069" y="-139.895" font-family="Times,serif" font-size="14.00" fill="#000000">{</text>
<text text-anchor="middle" x="1069" y="-123.095" font-family="Times,serif" font-size="14.00" fill="#000000"> &#160;&#160;&#160;: , : (() =&gt; ), : true</text>
<text text-anchor="middle" x="1069" y="-106.295" font-family="Times,serif" font-size="14.00" fill="#000000">}</text>
</g>
<!-- {
 &#160;&#160;&#160;: , : (() =&gt; ), : true
}&#45;&gt;NgxEditorComponent -->
<g id="edge2" class="edge">
<title>{
 &#160;&#160;&#160;: , : (() =&gt; ), : true
}&#45;&gt;NgxEditorComponent</title>
<path fill="none" stroke="#000000" d="M1090,-167.5668C1090,-167.5668 1090,-187.2266 1090,-187.2266"/>
<polygon fill="#000000" stroke="#000000" points="1086.5001,-187.2266 1090,-197.2266 1093.5001,-187.2266 1086.5001,-187.2266"/>
</g>
<!-- CommandExecutorService -->
<g id="node8" class="node">
<title>CommandExecutorService</title>
<ellipse fill="#fdb462" stroke="#000000" cx="305" cy="-215.5901" rx="115.1706" ry="18"/>
<text text-anchor="middle" x="305" y="-211.3901" font-family="Times,serif" font-size="14.00" fill="#000000">CommandExecutorService</text>
</g>
<!-- CommandExecutorService&#45;&gt;NgxEditorModule -->
<g id="edge7" class="edge">
<title>CommandExecutorService&#45;&gt;NgxEditorModule</title>
<path fill="none" stroke="#000000" d="M305,-233.6126C305,-250.9634 305,-274.5901 305,-274.5901 305,-274.5901 568.4663,-274.5901 568.4663,-274.5901"/>
<polygon fill="#000000" stroke="#000000" points="568.4663,-278.0902 578.4663,-274.5901 568.4662,-271.0902 568.4663,-278.0902"/>
</g>
<!-- MessageService -->
<g id="node9" class="node">
<title>MessageService</title>
<ellipse fill="#fdb462" stroke="#000000" cx="98" cy="-215.5901" rx="73.5522" ry="18"/>
<text text-anchor="middle" x="98" y="-211.3901" font-family="Times,serif" font-size="14.00" fill="#000000">MessageService</text>
</g>
<!-- MessageService&#45;&gt;NgxEditorModule -->
<g id="edge8" class="edge">
<title>MessageService&#45;&gt;NgxEditorModule</title>
<path fill="none" stroke="#000000" d="M98,-233.8743C98,-254.9111 98,-286.5901 98,-286.5901 98,-286.5901 568.6659,-286.5901 568.6659,-286.5901"/>
<polygon fill="#000000" stroke="#000000" points="568.6659,-290.0902 578.6659,-286.5901 568.6658,-283.0902 568.6659,-290.0902"/>
</g>
</g>
</svg>
