<?xml version="1.0" encoding="UTF-8" standalone="no"?>
<!DOCTYPE svg PUBLIC "-//W3C//DTD SVG 1.1//EN"
 "http://www.w3.org/Graphics/SVG/1.1/DTD/svg11.dtd">
<!-- Generated by graphviz version 2.40.1 (20161225.0304)
 -->
<!-- Title: dependencies Pages: 1 -->
<svg width="990pt" height="396pt"
 viewBox="0.00 0.00 990.00 395.59" xmlns="http://www.w3.org/2000/svg" xmlns:xlink="http://www.w3.org/1999/xlink">
<g id="graph0" class="graph" transform="scale(1 1) rotate(0) translate(4 391.5901)">
<title>dependencies</title>
<polygon fill="#ffffff" stroke="transparent" points="-4,4 -4,-391.5901 986,-391.5901 986,4 -4,4"/>
<text text-anchor="start" x="470.0091" y="-42.4" font-family="sans-serif" font-weight="bold" font-size="14.00" fill="#000000">Legend</text>
<polygon fill="#ffffb3" stroke="transparent" points="257,-10 257,-30 277,-30 277,-10 257,-10"/>
<text text-anchor="start" x="280.629" y="-15.4" font-family="sans-serif" font-size="14.00" fill="#000000"> &#160;Declarations</text>
<polygon fill="#8dd3c7" stroke="transparent" points="370,-10 370,-30 390,-30 390,-10 370,-10"/>
<text text-anchor="start" x="393.7251" y="-15.4" font-family="sans-serif" font-size="14.00" fill="#000000"> &#160;Module</text>
<polygon fill="#80b1d3" stroke="transparent" points="456,-10 456,-30 476,-30 476,-10 456,-10"/>
<text text-anchor="start" x="479.7812" y="-15.4" font-family="sans-serif" font-size="14.00" fill="#000000"> &#160;Bootstrap</text>
<polygon fill="#fdb462" stroke="transparent" points="553,-10 553,-30 573,-30 573,-10 553,-10"/>
<text text-anchor="start" x="576.6732" y="-15.4" font-family="sans-serif" font-size="14.00" fill="#000000"> &#160;Providers</text>
<polygon fill="#fb8072" stroke="transparent" points="649,-10 649,-30 669,-30 669,-10 649,-10"/>
<text text-anchor="start" x="672.7258" y="-15.4" font-family="sans-serif" font-size="14.00" fill="#000000"> &#160;Exports</text>
<g id="clust1" class="cluster">
<title>cluster_NgxEditorModule</title>
<polygon fill="none" stroke="#000000" stroke-dasharray="1,5" points="8,-70 8,-379.5901 974,-379.5901 974,-70 8,-70"/>
</g>
<g id="clust2" class="cluster">
<title>cluster_NgxEditorModule_declarations</title>
<polygon fill="none" stroke="#000000" points="436,-189.5901 436,-241.5901 966,-241.5901 966,-189.5901 436,-189.5901"/>
</g>
<g id="clust3" class="cluster">
<title>cluster_NgxEditorModule_NgxEditorComponent_providers</title>
<polygon fill="none" stroke="#000000" points="768,-78 768,-176.5901 966,-176.5901 966,-78 768,-78"/>
</g>
<g id="clust7" class="cluster">
<title>cluster_NgxEditorModule_exports</title>
<polygon fill="none" stroke="#000000" points="459,-319.5901 459,-371.5901 619,-371.5901 619,-319.5901 459,-319.5901"/>
</g>
<g id="clust9" class="cluster">
<title>cluster_NgxEditorModule_providers</title>
<polygon fill="none" stroke="#000000" points="16,-189.5901 16,-241.5901 428,-241.5901 428,-189.5901 16,-189.5901"/>
</g>
<!-- NgxEditorComponent -->
<g id="node1" class="node">
<title>NgxEditorComponent</title>
<polygon fill="#ffffb3" stroke="#000000" points="958.4341,-233.5901 817.5659,-233.5901 817.5659,-197.5901 958.4341,-197.5901 958.4341,-233.5901"/>
<text text-anchor="middle" x="888" y="-211.3901" font-family="Times,serif" font-size="14.00" fill="#000000">NgxEditorComponent</text>
</g>
<!-- NgxEditorModule -->
<g id="node4" class="node">
<title>NgxEditorModule</title>
<polygon fill="#8dd3c7" stroke="#000000" points="598.1513,-298.5901 595.1513,-302.5901 574.1513,-302.5901 571.1513,-298.5901 479.8487,-298.5901 479.8487,-262.5901 598.1513,-262.5901 598.1513,-298.5901"/>
<text text-anchor="middle" x="539" y="-276.3901" font-family="Times,serif" font-size="14.00" fill="#000000">NgxEditorModule</text>
</g>
<!-- NgxEditorComponent&#45;&gt;NgxEditorModule -->
<g id="edge1" class="edge">
<title>NgxEditorComponent&#45;&gt;NgxEditorModule</title>
<path fill="none" stroke="#000000" d="M888,-233.8743C888,-254.9111 888,-286.5901 888,-286.5901 888,-286.5901 608.2031,-286.5901 608.2031,-286.5901"/>
<polygon fill="#000000" stroke="#000000" points="608.2031,-283.0902 598.2031,-286.5901 608.2031,-290.0902 608.2031,-283.0902"/>
</g>
<!-- NgxGrippieComponent -->
<g id="node2" class="node">
<title>NgxGrippieComponent</title>
<polygon fill="#ffffb3" stroke="#000000" points="800.2021,-233.5901 651.7979,-233.5901 651.7979,-197.5901 800.2021,-197.5901 800.2021,-233.5901"/>
<text text-anchor="middle" x="726" y="-211.3901" font-family="Times,serif" font-size="14.00" fill="#000000">NgxGrippieComponent</text>
</g>
<!-- NgxGrippieComponent&#45;&gt;NgxEditorModule -->
<g id="edge3" class="edge">
<title>NgxGrippieComponent&#45;&gt;NgxEditorModule</title>
<path fill="none" stroke="#000000" d="M726,-233.6126C726,-250.9634 726,-274.5901 726,-274.5901 726,-274.5901 608.168,-274.5901 608.168,-274.5901"/>
<polygon fill="#000000" stroke="#000000" points="608.168,-271.0902 598.168,-274.5901 608.1679,-278.0902 608.168,-271.0902"/>
</g>
<!-- NgxEditorMessageComponent -->
<g id="node3" class="node">
<title>NgxEditorMessageComponent</title>
<polygon fill="#ffffb3" stroke="#000000" points="633.9114,-233.5901 444.0886,-233.5901 444.0886,-197.5901 633.9114,-197.5901 633.9114,-233.5901"/>
<text text-anchor="middle" x="539" y="-211.3901" font-family="Times,serif" font-size="14.00" fill="#000000">NgxEditorMessageComponent</text>
</g>
<!-- NgxEditorMessageComponent&#45;&gt;NgxEditorModule -->
<g id="edge4" class="edge">
<title>NgxEditorMessageComponent&#45;&gt;NgxEditorModule</title>
<path fill="none" stroke="#000000" d="M539,-233.6962C539,-233.6962 539,-252.581 539,-252.581"/>
<polygon fill="#000000" stroke="#000000" points="535.5001,-252.581 539,-262.581 542.5001,-252.5811 535.5001,-252.581"/>
</g>
<!-- NgxEditorComponent  -->
<g id="node6" class="node">
<title>NgxEditorComponent </title>
<polygon fill="#fb8072" stroke="#000000" points="610.9334,-363.5901 467.0666,-363.5901 467.0666,-327.5901 610.9334,-327.5901 610.9334,-363.5901"/>
<text text-anchor="middle" x="539" y="-341.3901" font-family="Times,serif" font-size="14.00" fill="#000000">NgxEditorComponent </text>
</g>
<!-- NgxEditorModule&#45;&gt;NgxEditorComponent  -->
<g id="edge5" class="edge">
<title>NgxEditorModule&#45;&gt;NgxEditorComponent </title>
<path fill="none" stroke="#000000" stroke-dasharray="5,2" d="M539,-298.6962C539,-298.6962 539,-317.581 539,-317.581"/>
<polygon fill="#000000" stroke="#000000" points="535.5001,-317.581 539,-327.581 542.5001,-317.5811 535.5001,-317.581"/>
</g>
<!-- {
 &#160;&#160;&#160;: , : (() =&gt; ), : true
} -->
<g id="node5" class="node">
<title>{
 &#160;&#160;&#160;: , : (() =&gt; ), : true
}</title>
<ellipse fill="#fdb462" stroke="#000000" cx="867" cy="-127.295" rx="91.4557" ry="41.0911"/>
<text text-anchor="middle" x="867" y="-139.895" font-family="Times,serif" font-size="14.00" fill="#000000">{</text>
<text text-anchor="middle" x="867" y="-123.095" font-family="Times,serif" font-size="14.00" fill="#000000"> &#160;&#160;&#160;: , : (() =&gt; ), : true</text>
<text text-anchor="middle" x="867" y="-106.295" font-family="Times,serif" font-size="14.00" fill="#000000">}</text>
</g>
<!-- {
 &#160;&#160;&#160;: , : (() =&gt; ), : true
}&#45;&gt;NgxEditorComponent -->
<g id="edge2" class="edge">
<title>{
 &#160;&#160;&#160;: , : (() =&gt; ), : true
}&#45;&gt;NgxEditorComponent</title>
<path fill="none" stroke="#000000" d="M888,-167.5668C888,-167.5668 888,-187.2266 888,-187.2266"/>
<polygon fill="#000000" stroke="#000000" points="884.5001,-187.2266 888,-197.2266 891.5001,-187.2266 884.5001,-187.2266"/>
</g>
<!-- CommandExecutorService -->
<g id="node7" class="node">
<title>CommandExecutorService</title>
<ellipse fill="#fdb462" stroke="#000000" cx="305" cy="-215.5901" rx="115.1706" ry="18"/>
<text text-anchor="middle" x="305" y="-211.3901" font-family="Times,serif" font-size="14.00" fill="#000000">CommandExecutorService</text>
</g>
<!-- CommandExecutorService&#45;&gt;NgxEditorModule -->
<g id="edge6" class="edge">
<title>CommandExecutorService&#45;&gt;NgxEditorModule</title>
<path fill="none" stroke="#000000" d="M305,-233.6126C305,-250.9634 305,-274.5901 305,-274.5901 305,-274.5901 469.6494,-274.5901 469.6494,-274.5901"/>
<polygon fill="#000000" stroke="#000000" points="469.6495,-278.0902 479.6494,-274.5901 469.6494,-271.0902 469.6495,-278.0902"/>
</g>
<!-- MessageService -->
<g id="node8" class="node">
<title>MessageService</title>
<ellipse fill="#fdb462" stroke="#000000" cx="98" cy="-215.5901" rx="73.5522" ry="18"/>
<text text-anchor="middle" x="98" y="-211.3901" font-family="Times,serif" font-size="14.00" fill="#000000">MessageService</text>
</g>
<!-- MessageService&#45;&gt;NgxEditorModule -->
<g id="edge7" class="edge">
<title>MessageService&#45;&gt;NgxEditorModule</title>
<path fill="none" stroke="#000000" d="M98,-233.8743C98,-254.9111 98,-286.5901 98,-286.5901 98,-286.5901 469.5248,-286.5901 469.5248,-286.5901"/>
<polygon fill="#000000" stroke="#000000" points="469.5248,-290.0902 479.5248,-286.5901 469.5247,-283.0902 469.5248,-290.0902"/>
</g>
</g>
</svg>
