<?xml version="1.0" encoding="UTF-8" standalone="no"?>
<!DOCTYPE svg PUBLIC "-//W3C//DTD SVG 1.1//EN"
 "http://www.w3.org/Graphics/SVG/1.1/DTD/svg11.dtd">
<!-- Generated by graphviz version 2.40.1 (20161225.0304)
 -->
<!-- Title: dependencies Pages: 1 -->
<svg width="1192pt" height="396pt"
 viewBox="0.00 0.00 1192.00 395.59" xmlns="http://www.w3.org/2000/svg" xmlns:xlink="http://www.w3.org/1999/xlink">
<g id="graph0" class="graph" transform="scale(1 1) rotate(0) translate(4 391.5901)">
<title>dependencies</title>
<polygon fill="#ffffff" stroke="transparent" points="-4,4 -4,-391.5901 1188,-391.5901 1188,4 -4,4"/>
<text text-anchor="start" x="571.0091" y="-42.4" font-family="sans-serif" font-weight="bold" font-size="14.00" fill="#000000">Legend</text>
<polygon fill="#ffffb3" stroke="transparent" points="358,-10 358,-30 378,-30 378,-10 358,-10"/>
<text text-anchor="start" x="381.629" y="-15.4" font-family="sans-serif" font-size="14.00" fill="#000000"> &#160;Declarations</text>
<polygon fill="#8dd3c7" stroke="transparent" points="471,-10 471,-30 491,-30 491,-10 471,-10"/>
<text text-anchor="start" x="494.7251" y="-15.4" font-family="sans-serif" font-size="14.00" fill="#000000"> &#160;Module</text>
<polygon fill="#80b1d3" stroke="transparent" points="557,-10 557,-30 577,-30 577,-10 557,-10"/>
<text text-anchor="start" x="580.7812" y="-15.4" font-family="sans-serif" font-size="14.00" fill="#000000"> &#160;Bootstrap</text>
<polygon fill="#fdb462" stroke="transparent" points="654,-10 654,-30 674,-30 674,-10 654,-10"/>
<text text-anchor="start" x="677.6732" y="-15.4" font-family="sans-serif" font-size="14.00" fill="#000000"> &#160;Providers</text>
<polygon fill="#fb8072" stroke="transparent" points="750,-10 750,-30 770,-30 770,-10 750,-10"/>
<text text-anchor="start" x="773.7258" y="-15.4" font-family="sans-serif" font-size="14.00" fill="#000000"> &#160;Exports</text>
<g id="clust1" class="cluster">
<title>cluster_NgxEditorModule</title>
<polygon fill="none" stroke="#000000" stroke-dasharray="1,5" points="8,-70 8,-379.5901 1176,-379.5901 1176,-70 8,-70"/>
</g>
<g id="clust2" class="cluster">
<title>cluster_NgxEditorModule_declarations</title>
<polygon fill="none" stroke="#000000" points="436,-189.5901 436,-241.5901 1168,-241.5901 1168,-189.5901 436,-189.5901"/>
</g>
<g id="clust3" class="cluster">
<title>cluster_NgxEditorModule_NgxEditorComponent_providers</title>
<polygon fill="none" stroke="#000000" points="290,-78 290,-176.5901 1168,-176.5901 1168,-78 290,-78"/>
</g>
<g id="clust8" class="cluster">
<title>cluster_NgxEditorModule_exports</title>
<polygon fill="none" stroke="#000000" points="530,-319.5901 530,-371.5901 690,-371.5901 690,-319.5901 530,-319.5901"/>
</g>
<g id="clust10" class="cluster">
<title>cluster_NgxEditorModule_providers</title>
<polygon fill="none" stroke="#000000" points="16,-189.5901 16,-241.5901 428,-241.5901 428,-189.5901 16,-189.5901"/>
</g>
<!-- NgxEditorComponent -->
<g id="node1" class="node">
<title>NgxEditorComponent</title>
<polygon fill="#ffffb3" stroke="#000000" points="1160.4341,-233.5901 1019.5659,-233.5901 1019.5659,-197.5901 1160.4341,-197.5901 1160.4341,-233.5901"/>
<text text-anchor="middle" x="1090" y="-211.3901" font-family="Times,serif" font-size="14.00" fill="#000000">NgxEditorComponent</text>
</g>
<!-- NgxEditorModule -->
<g id="node5" class="node">
<title>NgxEditorModule</title>
<polygon fill="#8dd3c7" stroke="#000000" points="669.1513,-298.5901 666.1513,-302.5901 645.1513,-302.5901 642.1513,-298.5901 550.8487,-298.5901 550.8487,-262.5901 669.1513,-262.5901 669.1513,-298.5901"/>
<text text-anchor="middle" x="610" y="-276.3901" font-family="Times,serif" font-size="14.00" fill="#000000">NgxEditorModule</text>
</g>
<!-- NgxEditorComponent&#45;&gt;NgxEditorModule -->
<g id="edge1" class="edge">
<title>NgxEditorComponent&#45;&gt;NgxEditorModule</title>
<path fill="none" stroke="#000000" d="M1090,-233.8743C1090,-254.9111 1090,-286.5901 1090,-286.5901 1090,-286.5901 679.3388,-286.5901 679.3388,-286.5901"/>
<polygon fill="#000000" stroke="#000000" points="679.3389,-283.0902 669.3388,-286.5901 679.3388,-290.0902 679.3389,-283.0902"/>
</g>
<!-- NgxEditorMessageComponent -->
<g id="node2" class="node">
<title>NgxEditorMessageComponent</title>
<polygon fill="#ffffb3" stroke="#000000" points="1001.9114,-233.5901 812.0886,-233.5901 812.0886,-197.5901 1001.9114,-197.5901 1001.9114,-233.5901"/>
<text text-anchor="middle" x="907" y="-211.3901" font-family="Times,serif" font-size="14.00" fill="#000000">NgxEditorMessageComponent</text>
</g>
<!-- NgxEditorMessageComponent&#45;&gt;NgxEditorModule -->
<g id="edge3" class="edge">
<title>NgxEditorMessageComponent&#45;&gt;NgxEditorModule</title>
<path fill="none" stroke="#000000" d="M907,-233.6126C907,-250.9634 907,-274.5901 907,-274.5901 907,-274.5901 679.3886,-274.5901 679.3886,-274.5901"/>
<polygon fill="#000000" stroke="#000000" points="679.3886,-271.0902 669.3886,-274.5901 679.3885,-278.0902 679.3886,-271.0902"/>
</g>
<!-- NgxEditorToolbarComponent -->
<g id="node3" class="node">
<title>NgxEditorToolbarComponent</title>
<polygon fill="#ffffb3" stroke="#000000" points="794.252,-233.5901 609.748,-233.5901 609.748,-197.5901 794.252,-197.5901 794.252,-233.5901"/>
<text text-anchor="middle" x="702" y="-211.3901" font-family="Times,serif" font-size="14.00" fill="#000000">NgxEditorToolbarComponent</text>
</g>
<!-- NgxEditorToolbarComponent&#45;&gt;NgxEditorModule -->
<g id="edge4" class="edge">
<title>NgxEditorToolbarComponent&#45;&gt;NgxEditorModule</title>
<path fill="none" stroke="#000000" d="M639.4748,-233.6962C639.4748,-233.6962 639.4748,-252.581 639.4748,-252.581"/>
<polygon fill="#000000" stroke="#000000" points="635.9748,-252.581 639.4748,-262.581 642.9748,-252.5811 635.9748,-252.581"/>
</g>
<!-- NgxGrippieComponent -->
<g id="node4" class="node">
<title>NgxGrippieComponent</title>
<polygon fill="#ffffb3" stroke="#000000" points="592.2021,-233.5901 443.7979,-233.5901 443.7979,-197.5901 592.2021,-197.5901 592.2021,-233.5901"/>
<text text-anchor="middle" x="518" y="-211.3901" font-family="Times,serif" font-size="14.00" fill="#000000">NgxGrippieComponent</text>
</g>
<!-- NgxGrippieComponent&#45;&gt;NgxEditorModule -->
<g id="edge5" class="edge">
<title>NgxGrippieComponent&#45;&gt;NgxEditorModule</title>
<path fill="none" stroke="#000000" d="M571.3878,-233.6962C571.3878,-233.6962 571.3878,-252.581 571.3878,-252.581"/>
<polygon fill="#000000" stroke="#000000" points="567.8879,-252.581 571.3878,-262.581 574.8879,-252.5811 567.8879,-252.581"/>
</g>
<!-- NgxEditorComponent  -->
<g id="node7" class="node">
<title>NgxEditorComponent </title>
<polygon fill="#fb8072" stroke="#000000" points="681.9334,-363.5901 538.0666,-363.5901 538.0666,-327.5901 681.9334,-327.5901 681.9334,-363.5901"/>
<text text-anchor="middle" x="610" y="-341.3901" font-family="Times,serif" font-size="14.00" fill="#000000">NgxEditorComponent </text>
</g>
<!-- NgxEditorModule&#45;&gt;NgxEditorComponent  -->
<g id="edge6" class="edge">
<title>NgxEditorModule&#45;&gt;NgxEditorComponent </title>
<path fill="none" stroke="#000000" stroke-dasharray="5,2" d="M610,-298.6962C610,-298.6962 610,-317.581 610,-317.581"/>
<polygon fill="#000000" stroke="#000000" points="606.5001,-317.581 610,-327.581 613.5001,-317.5811 606.5001,-317.581"/>
</g>
<!-- {
 &#160;&#160;&#160;provide: NG_VALUE_ACCESSOR, useExisting: forwardRef(() =&gt; NgxEditorComponent), multi: true
} -->
<g id="node6" class="node">
<title>{
 &#160;&#160;&#160;provide: NG_VALUE_ACCESSOR, useExisting: forwardRef(() =&gt; NgxEditorComponent), multi: true
}</title>
<ellipse fill="#fdb462" stroke="#000000" cx="729" cy="-127.295" rx="431.1036" ry="41.0911"/>
<text text-anchor="middle" x="729" y="-139.895" font-family="Times,serif" font-size="14.00" fill="#000000">{</text>
<text text-anchor="middle" x="729" y="-123.095" font-family="Times,serif" font-size="14.00" fill="#000000"> &#160;&#160;&#160;provide: NG_VALUE_ACCESSOR, useExisting: forwardRef(() =&gt; NgxEditorComponent), multi: true</text>
<text text-anchor="middle" x="729" y="-106.295" font-family="Times,serif" font-size="14.00" fill="#000000">}</text>
</g>
<!-- {
 &#160;&#160;&#160;provide: NG_VALUE_ACCESSOR, useExisting: forwardRef(() =&gt; NgxEditorComponent), multi: true
}&#45;&gt;NgxEditorComponent -->
<g id="edge2" class="edge">
<title>{
 &#160;&#160;&#160;provide: NG_VALUE_ACCESSOR, useExisting: forwardRef(() =&gt; NgxEditorComponent), multi: true
}&#45;&gt;NgxEditorComponent</title>
<path fill="none" stroke="#000000" d="M1090,-150.0332C1090,-150.0332 1090,-187.3756 1090,-187.3756"/>
<polygon fill="#000000" stroke="#000000" points="1086.5001,-187.3756 1090,-197.3756 1093.5001,-187.3756 1086.5001,-187.3756"/>
</g>
<!-- CommandExecutorService -->
<g id="node8" class="node">
<title>CommandExecutorService</title>
<ellipse fill="#fdb462" stroke="#000000" cx="305" cy="-215.5901" rx="115.1706" ry="18"/>
<text text-anchor="middle" x="305" y="-211.3901" font-family="Times,serif" font-size="14.00" fill="#000000">CommandExecutorService</text>
</g>
<!-- CommandExecutorService&#45;&gt;NgxEditorModule -->
<g id="edge7" class="edge">
<title>CommandExecutorService&#45;&gt;NgxEditorModule</title>
<path fill="none" stroke="#000000" d="M305,-233.6126C305,-250.9634 305,-274.5901 305,-274.5901 305,-274.5901 540.8313,-274.5901 540.8313,-274.5901"/>
<polygon fill="#000000" stroke="#000000" points="540.8313,-278.0902 550.8313,-274.5901 540.8313,-271.0902 540.8313,-278.0902"/>
</g>
<!-- MessageService -->
<g id="node9" class="node">
<title>MessageService</title>
<ellipse fill="#fdb462" stroke="#000000" cx="98" cy="-215.5901" rx="73.5522" ry="18"/>
<text text-anchor="middle" x="98" y="-211.3901" font-family="Times,serif" font-size="14.00" fill="#000000">MessageService</text>
</g>
<!-- MessageService&#45;&gt;NgxEditorModule -->
<g id="edge8" class="edge">
<title>MessageService&#45;&gt;NgxEditorModule</title>
<path fill="none" stroke="#000000" d="M98,-233.8743C98,-254.9111 98,-286.5901 98,-286.5901 98,-286.5901 540.7669,-286.5901 540.7669,-286.5901"/>
<polygon fill="#000000" stroke="#000000" points="540.767,-290.0902 550.7669,-286.5901 540.7669,-283.0902 540.767,-290.0902"/>
</g>
</g>
</svg>
