<?xml version="1.0" standalone="no"?><!-- Generator: Gravit.io --><svg xmlns="http://www.w3.org/2000/svg" xmlns:xlink="http://www.w3.org/1999/xlink" style="isolation:isolate" viewBox="0 0 250 250" width="250" height="250"><defs><clipPath id="_clipPath_wzKEqjMBiVXvyKsxO1DNl6YvokbYZ1uE"><rect width="250" height="250"/></clipPath></defs><g clip-path="url(#_clipPath_wzKEqjMBiVXvyKsxO1DNl6YvokbYZ1uE)"><path d=" M 125 30 L 125 30 L 125 30 L 31.9 63.2 L 46.1 186.3 L 125 230 L 125 230 L 125 230 L 203.9 186.3 L 218.1 63.2 L 125 30 Z " fill="rgb(221,0,49)"/><path d=" M 125 30 L 125 52.2 L 125 52.1 L 125 153.4 L 125 153.4 L 125 230 L 125 230 L 203.9 186.3 L 218.1 63.2 L 125 30 L 125 30 Z " fill="rgb(195,0,47)"/><path d=" M 125 52.1 L 66.8 182.6 L 66.8 182.6 L 88.5 182.6 L 88.5 182.6 L 100.2 153.4 L 149.6 153.4 L 161.3 182.6 L 161.3 182.6 L 183 182.6 L 183 182.6 L 125 52.1 L 125 52.1 L 125 52.1 L 125 52.1 L 125 52.1 Z  M 142 135.4 L 108 135.4 L 125 94.5 L 142 135.4 Z " fill="rgb(255,255,255)"/><path d=" M 112.769 173.154 L 126.615 187 L 112.769 187 L 112.769 173.154 Z  M 173 113 L 116.923 169 L 130.769 182.846 L 186.846 126.846 L 173 113 Z " fill="rgb(0,0,0)" fill-opacity="0.3"/><path d=" M 110 170.385 L 123.846 184.231 L 110 184.231 L 110 170.385 Z  M 170 110 L 114.154 166.231 L 128 180.077 L 183.846 123.846 L 170 110 Z " fill="rgb(255,255,255)"/><path d=" M 110 170.385 L 123.846 184.231 L 110 184.231 L 110 170.385 Z  M 170 110 L 114.154 166.231 L 128 180.077 L 183.846 123.846 L 170 110 Z " fill="rgb(255,255,255)"/></g></svg>
